<svg data-name="Layer 1" xmlns="http://www.w3.org/2000/svg" xmlns:xlink="http://www.w3.org/1999/xlink" viewBox="0 0 1015.79 162.88"><defs><linearGradient id="a" x1="176.4" y1="22.24" x2="176.65" y2="21.99" gradientUnits="userSpaceOnUse"><stop offset="0" stop-color="#7dc142"/><stop offset="1" stop-color="#2b91cf"/></linearGradient><linearGradient id="b" x1="217.15" y1="148.21" x2="217.94" y2="147.42" xlink:href="#a"/><linearGradient id="c" x1="219.86" y1="147.94" x2="220.41" y2="147.39" xlink:href="#a"/><linearGradient id="d" x1="175.98" y1="137.02" x2="176.34" y2="136.65" xlink:href="#a"/><linearGradient id="e" x1="175.6" y1="136.86" x2="175.71" y2="136.75" xlink:href="#a"/><linearGradient id="f" x1="130.66" y1="102.76" x2="130.72" y2="102.7" xlink:href="#a"/><linearGradient id="g" x1="95.57" y1="80.22" x2="96.33" y2="79.45" xlink:href="#a"/><linearGradient id="h" x1="122.86" y1="137.84" x2="237.77" y2="22.94" xlink:href="#a"/><linearGradient id="i" x1="97.94" y1="62.3" x2="97.99" y2="62.24" xlink:href="#a"/><linearGradient id="j" x1="137.47" y1="24.88" x2="137.63" y2="24.72" xlink:href="#a"/><linearGradient id="k" x1="126.31" y1="20.23" x2="128.43" y2="18.11" xlink:href="#a"/><linearGradient id="l" x1="187.19" y1="160.59" x2="187.36" y2="160.42" xlink:href="#a"/><linearGradient id="m" x1="159.27" y1="130.1" x2="159.3" y2="130.08" xlink:href="#a"/><linearGradient id="n" x1="191.99" y1="139.45" x2="192.03" y2="139.41" xlink:href="#a"/><linearGradient id="o" x1="192.19" y1="139.57" x2="192.95" y2="138.81" xlink:href="#a"/><linearGradient id="p" x1="192.87" y1="138.73" x2="193.09" y2="138.51" xlink:href="#a"/><linearGradient id="q" x1="199.57" y1="152.58" x2="199.94" y2="152.2" xlink:href="#a"/><linearGradient id="r" x1="213.2" y1="149.68" x2="214.01" y2="148.87" xlink:href="#a"/><linearGradient id="s" x1="215.48" y1="149.94" x2="218.35" y2="147.07" xlink:href="#a"/><linearGradient id="t" x1="95.14" y1="79.15" x2="95.82" y2="78.47" xlink:href="#a"/><linearGradient id="u" x1="95.89" y1="78.97" x2="96.53" y2="78.34" xlink:href="#a"/><linearGradient id="v" x1="96.06" y1="80.35" x2="96.25" y2="80.16" xlink:href="#a"/><linearGradient id="w" x1="95" y1="82.23" x2="96.29" y2="80.94" xlink:href="#a"/><linearGradient id="x" x1="95.14" y1="77.29" x2="96.26" y2="76.17" xlink:href="#a"/><linearGradient id="y" x1="137.22" y1="25.16" x2="137.55" y2="24.83" xlink:href="#a"/><linearGradient id="z" x1="137.14" y1="25.04" x2="137.39" y2="24.8" xlink:href="#a"/><linearGradient id="A" x1="137.79" y1="24.83" x2="137.85" y2="24.77" xlink:href="#a"/><linearGradient id="B" x1="138.65" y1="24.29" x2="138.77" y2="24.18" xlink:href="#a"/><linearGradient id="C" x1="110.83" y1="34.68" x2="111.99" y2="33.53" xlink:href="#a"/><linearGradient id="D" x1="98.15" y1="58.47" x2="100.66" y2="55.96" xlink:href="#a"/><linearGradient id="E" x1="96.75" y1="64.44" x2="98.42" y2="62.77" xlink:href="#a"/><linearGradient id="F" x1="121.8" y1="23.86" x2="122.21" y2="23.45" xlink:href="#a"/><linearGradient id="G" x1="133.02" y1="15.63" x2="135.13" y2="13.52" xlink:href="#a"/><linearGradient id="H" x1="128.66" y1="18.62" x2="130.91" y2="16.37" xlink:href="#a"/><linearGradient id="I" x1="136.91" y1="13.07" x2="137.97" y2="12.01" xlink:href="#a"/><linearGradient id="J" x1="125.72" y1="20.48" x2="127.1" y2="19.09" xlink:href="#a"/><linearGradient id="K" x1="117.72" y1="27.24" x2="118.69" y2="26.26" xlink:href="#a"/><linearGradient id="L" x1="122.64" y1="22.97" x2="123.67" y2="21.95" xlink:href="#a"/><linearGradient id="M" x1="116.57" y1="28.5" x2="117.3" y2="27.77" xlink:href="#a"/><linearGradient id="N" x1="112.81" y1="32.34" x2="113.84" y2="31.31" xlink:href="#a"/><linearGradient id="O" x1="135.51" y1="13.93" x2="136.19" y2="13.25" xlink:href="#a"/><linearGradient id="P" x1="97.42" y1="61.67" x2="99.29" y2="59.8" xlink:href="#a"/><linearGradient id="Q" x1="148.58" y1="30.24" x2="149.12" y2="29.7" xlink:href="#a"/><linearGradient id="R" x1="177.21" y1="11.97" x2="177.6" y2="11.58" xlink:href="#a"/></defs><title>logo</title><path d="M176.75 22.15v-.08h-.47a1.58 1.58 0 0 0 .47.08z" fill-rule="evenodd" fill="url(#a)"/><path d="M217 148.07c.3-.14.68-.3 1.1-.47l-.75.17a.62.62 0 0 0-.35.3z" fill-rule="evenodd" fill="url(#b)"/><path d="M220.52 147.55v-.06l-.79.31a5.08 5.08 0 0 0 .79-.25z" fill-rule="evenodd" fill="url(#c)"/><path d="M176.49 136.85a1.63 1.63 0 0 0-.71 0z" fill-rule="evenodd" fill="url(#d)"/><path d="M175.59 136.81h.08-.08z" fill-rule="evenodd" fill="url(#e)"/><path d="M130.7 102.79a.29.29 0 0 1 0-.12s-.03.05 0 .12z" fill-rule="evenodd" fill="url(#f)"/><path d="M96 80.12a4.17 4.17 0 0 1-.09-1.06 7.75 7.75 0 0 0-.07 1.46s.07 0 .09.09c.07-.22.07-.42.07-.49z" fill-rule="evenodd" fill="url(#g)"/><path d="M266.57 91.62a29.53 29.53 0 0 0 .22-3.56 1.48 1.48 0 0 1-1.31.56c0-.45.18-.39.37-.4 0-.58-.43-.61-.68-.86.26-1-.18-1.92.27-2.47.06-.45-.23-.29-.24-.62s.22-.14.23-.41c.08-.72-.2-.79-.16-1.44-.25-.13-.46-.31-.4-1 .37-.47.21 1.69.37.41a3.55 3.55 0 0 0 0-.83 7.77 7.77 0 0 1 .18-.83c0-.36-.15-.44-.18-.82a31.19 31.19 0 0 0-.38-4.55c0-.24.18-.19.32-.25a8.56 8.56 0 0 1-.29-3.77 6.38 6.38 0 0 0-.33-1c-.08-.38.12-.54.1-.65s-.28-.25-.32-.37-.11-1-.13-1.05a5.32 5.32 0 0 0-.19-1.25c.17 0 .23.49.32.8.33.45-.27-1.38-.37-1.88-.15.54-.52-.52-.5.34-.36-.11.19-.45-.17-1 .17-.34.57.43.45-.11-.21-.82-.16.11-.46-.33s.19-.31.21-.49-.46-1 0-.88a18.55 18.55 0 0 0-1-2.81c-.31.22-.59-.3-.66.21a16.26 16.26 0 0 1-1.36-3.57c0-.18 0-.21.14-.28-.53-1.7-1.77-3.33-1.81-4.35-.48-.81-1.31-2-.84-2.22a8.86 8.86 0 0 1-.71-1.58c-.19-.37-.59-.78-.74-1.08a3.89 3.89 0 0 1-.12-.68c-.08-.21-.22-.43-.33-.64a11.85 11.85 0 0 0 1.13 1.77c-.07-.35-.47-.57-.8-1.34a10.32 10.32 0 0 1 1.65 2.46c.08-.18-.5-1.14-.28-1.14a37.11 37.11 0 0 1-2.24-3.69c-.06.06.31.57.19.55-.72-1.35-1.07-1.81-1.64-2.88a22.38 22.38 0 0 1-1.54-2.09.65.65 0 0 0-.06-.12 16 16 0 0 1-1.36-2 .24.24 0 0 1-.08.07c-.36-.58.31.06-.29-.74-.45.24-1.93-2.57-3.09-3.41-.15-.21-.23-.35-.15-.38l-4.07-4.33c-1.23-1.28-2.4-2.46-3.8-3.68 0 .11.15.27.17.38a88.54 88.54 0 0 1-1.6-1.81c-.06.08-1.85-1.35-1.81-1.62a15.43 15.43 0 0 1-3.08-2.35c-.64-.11-1.72-1.15-2.6-1.65-.37-.28.24.09-.09-.22a4 4 0 0 1-1.33-.95c-.36 0-1.11-.77-1.34-.61-.15-.19-.42-.4-.53-.29-.28-.35-1.15-.67-1.15-.86-.87-.22-2.56-1.52-3.26-1.77a3.79 3.79 0 0 0-1-.78 19.48 19.48 0 0 1-3.48-1.82c-.62-.24.74.39.49.39-1.49-.77-3.11-1.49-4.75-2.19a1.76 1.76 0 0 1 1.4.22c.15-.39-.54-1-1-.77-.56-.35.65 0 .4-.47s-1-.41-1.54-.62a7.31 7.31 0 0 0-.85-.45c-1-.37-2.27-.59-3.41-1-.46-.15-.58-.33-.88-.42-1.52-.45-3.39-.88-4.93-1.31a2.77 2.77 0 0 0-1-.29l.31.12c-.51-.11-1-.16-1.5-.26l-1-.17-.64-.19a15.08 15.08 0 0 1 2.59.49c-.1-.2-1.26-.43-1.13-.61a39.48 39.48 0 0 1-4.51-.91c0 .08.67.16.59.25-1.58-.41-2.19-.47-3.47-.82-1.33 0-3-.42-5.41-.62-.74-.15.25-.2-.81-.31-.08.53-3.39-.36-4.83-.06a.47.47 0 0 1-.42-.34L179.45 0h-.53L176 .22c-1.86 0-3.6.18-5.53.4l.44.19h-2.55a5.85 5.85 0 0 1-2.53.25 14.69 14.69 0 0 1-3.94.72c-.5.43-2.06.52-3 .86-.47.08.23-.13-.24-.09a3.83 3.83 0 0 1-1.65.36c-.26.24-1.35.31-1.35.61-.26 0-.63 0-.58.21-.48 0-1.3.42-1.46.28-.72.52-2.91.89-3.56 1.27a4.06 4.06 0 0 0-1.29.2A19.17 19.17 0 0 1 145 6.85c-.59.32.79-.31.64-.11-4.44 1.71-9.14 4.38-13.27 6.28 0-.24.72-.5.59-.61-.84.43-1 .56-1.69.9 0 .15.38-.16.44-.11a2.57 2.57 0 0 1-.64.54c-.41.24.16-.21-.27 0a1.92 1.92 0 0 1-.9.55c-.67.44 0 .07-.08.24-.48.34-.57.25-.68.16-.38.23-.28.29-.25.36a49.12 49.12 0 0 0-7.05 5.31c-.41.35-.75.72-.6.6-1.09.83-2.82 2.49-2.74 2.88-.49.06-.9 1-1.82 1.75.47 0-1.23 1.76-1.89 2.24a8.2 8.2 0 0 1 1.75-2.09c-1.16.7-2.71 3.16-3.6 3.56-1.36 1.58-1.86 2.75-3.14 4.2.2-.05.37-.11.13.36-.6.82-.24.07-.62.33-1.11 1.8-2.85 3.66-4 6.16-.38.6-.11 0-.38.27-1.2 2-1.39 2.77-2 3.7a2.89 2.89 0 0 1-.49 1.41c.07 0 .2-.33.31-.55.19-.06-.09.44-.12.65s-.09-.19-.44.71c.12 0 .32-.58.36-.29.47-.8.61-1.52.89-1.42.07-1.1 1.15-1.75 1.76-3.32.24.37-1.06 1.67-.93 2.1a6.45 6.45 0 0 0-.82 1.45c.09 0 .33-.62.46-.69a9.82 9.82 0 0 1-.81 1.68s.07-.25.13-.4c-.17.24-.83 1.61-.47 1.16a6.32 6.32 0 0 1-.56.89c-.24.52-.21.69 0 .45-.21.44-.32.39-.15-.07-.34.5-.27.86-.61 1.79.21-1.33-.32 1.11-.6 1.56 0-.12 0-.24-.07-.26-.12.39.13.23-.14.85-.5.64-1 3.06-1.79 4.67l.14.05a11.77 11.77 0 0 1-.39 1.19 1.73 1.73 0 0 1 0-.66c-.09.09-.17.78-.37 1.2.11-.06.25-.55.36-.33a6.43 6.43 0 0 0-.41 1.84c-.14.52 0-.31-.21-.06-.06.8-.12 1.77-.53 1.81-.1 1.12-.86 1.71-1.14 4 .23-.6.08-.14.13.25-.11.31-.23.47-.33.79a5.37 5.37 0 0 1-.09 1.47c.14 0 .15-.32.21 0a13.89 13.89 0 0 0-.46 1.63c.16-.11.27.18 0 1.06.15.19 0 1.31.17 1.3 0 .57-.22.14-.21.83.2.12.17.25.32-.17a6.42 6.42 0 0 0 0 1.28c-.17.08-.08-.67-.29-.47v1.79a3.19 3.19 0 0 1 .19 2c0 .18-.06.2-.12.2a.15.15 0 0 1-.08 0c0 .75.19.64.31.85 0-.85.16-.62.11-1.46a6.11 6.11 0 0 1 .12.85c0-.29.06-.55.39-.61-.25 1 0 1.42-.21 2.28-.14 0-.15-.22-.18-.41v1.24c0 .11 0-.05-.06-.08a2.49 2.49 0 0 1-.08.54c0 .6-.1.62-.07 1.2.11 0 .11-.25.21-.2-.53 2.44.43 4.67.36 7.37 0-.75.18-.41.19-1.26.08 0 .12.41.06.42.45-.18.56 2.25.73 3.54a8.62 8.62 0 0 0-.05-1.88c.17.36.44 1.61.14 1.46a12.28 12.28 0 0 1 .3 1.79c.2.58-.21-1.13 0-1a16.86 16.86 0 0 1 .69 2.89 5.15 5.15 0 0 0 .19.83 11.81 11.81 0 0 0 .73 2.24 5.43 5.43 0 0 0 .13 1c.43 1.44 1.49 4.46 2 6.69.11.17.18.1.31.37 0-.33-.3-.46-.43-1 .33.12.84 1.58 1.12 2.35-.1-.12-.24-.45-.31-.37.42.94 1.43 2.42 1.38 3.13.17.43.24.36.33.36.36.85.4.89.58 1.36-.05.1-.16-.11-.28-.36.15.86.75 1.38 1.14 2.53.13-.17.52.75.74.87a43.27 43.27 0 0 0 2.47 4.69 52.48 52.48 0 0 0 3.3 4.84c.65 1.44 1.95 2.6 2.86 4 .34.32.77.81.9.72a3.44 3.44 0 0 0 .79 1c.35.43-.26-.19-.17.1 1.21 1.27 1.29 2 2.28 3.11.11-.34-.79-1.07-1-1.63a19.48 19.48 0 0 1 2 2c-.05-.11-.08-.21 0-.25a9.5 9.5 0 0 0 2.07 2.2c.2.24-.11 0-.12.1a83 83 0 0 0 7.54 6.59c.21.2 0 .2 0 .27 1 .8 1.16.92 1.93 1.44-1-.51 1 .74 1.3.84s0 .19.21.39c.68.45 0-.3.73.16a11.93 11.93 0 0 0 2 1.62c.51.28-.68-.53-.84-.68 0-.25 1.06.58 1.73 1 .4.25 0 .18 0 .3a11.15 11.15 0 0 1 1.78.9c.49.36-.35-.07.07.26.75.21 2.38 1.31 3.53 1.79 0-.07-.33-.22-.54-.35.24 0 .6.36.94.53a1.28 1.28 0 0 1-.43-.14 19.15 19.15 0 0 0 2.16 1.06c.56.19-.5-.44.16-.23 0 .08-.05.28.88.61-.17-.2-.76-.51-.39-.57a.85.85 0 0 0 .41.16c.83.45-.36.07.47.45-.15-.41 1 .29 1.71.53 0-.1-.81-.41-1.14-.61.06-.12.67.17 1.24.45s-1.11-.55-1.11-.65a27.19 27.19 0 0 1 4.56 2.37c.45.18 1.13.36 1.17.54l.59-.17-.2-.08c-.16-.07-.18-.12-.38-.21s-.1-.08 0-.1.31.15.42.19c-.18-.25.78 0 .31-.21-.31-.13-.36-.07-.42 0-.52-.38-.87-.65-1.16-.88l-1.53-.24 1.31.65a49 49 0 0 1-8.38-3.93 15 15 0 0 1-3.42-1.85c0-.12 1.16.77 1 .45a15 15 0 0 1-1.43-.94c.35.64-2.1-1.11-2.65-1.49.12-.09.8.43 1.32.76-1.61-1.46-4.3-2.73-6.31-4.48 0 .13-.53-.34-.62-.29-1.4-1.44-3.2-2.55-4.51-3.95a37.47 37.47 0 0 1-5.63-5.57c.15.1.25.1.31 0 .13.45.56.55 1 .87a2.57 2.57 0 0 0 .4.49c-.32-.17-.89-.81-1.09-.78a13.47 13.47 0 0 1 1.27 1.17c.32.06 0-.39.81.46a8.31 8.31 0 0 0-.78-1c.14-.09 1 .75 1.66 1.41s1.07 1.12.23.34c.28.47 1.94 1.72 1.43 1.56 1 1.07 1.5 1.11 2.34 1.89.67.61.79 1 1.41 1.58 0 0 .09-.05.07-.08.4.38 1.17 1.33 1.53 1.18-.49-.25-1.26-1-1.06-1 .71.85 3.52 2.62 5.25 4 .21.14.2 0 .26 0 2 1.58 4.85 3 6.5 4.1l.09-.12a5.65 5.65 0 0 0 1.83 1.09 9.45 9.45 0 0 0-1.4-.95 19.3 19.3 0 0 0 3.09 1.48c0 .06 0 .11-.26 0a9.17 9.17 0 0 0 1.78.75c.17.14 1.3.74.66.53 1 .46 2 1 3.13 1.44l.45.39.64.1.22.08a14.81 14.81 0 0 1 1.32.92l-.54.14-.36-.14s.21.1.31.15h-.14a2.5 2.5 0 0 0 .52.15c.65.39.93 0 1.92.16-.5.2-.19.51-.06.69 0-.08.55.08.57.16-.32-.07 0 .1.37.17-.38-.21 1.12-.16 1.22.15a6.71 6.71 0 0 0-1.46-.1c.1 0 .21.06.31.11.46.17.82.36 1.2.54 1 .24 2 .57 3 .91.14 0 .3.07.44.13 0-.18.33 0 .75.27 0 0 .1.88.15.9.85 0 2.69-.39 3.71 0 .47 0 .58-.12 1-.08 1.48.26 4.78 1.19 4.75.47.72 0 .09.21.57.23s.7-.06.64-.25c-1.85-.68-4.49-1.29-6.38-2.12.58-.06 1.38 0 1.48-.32 2.11.29 4.21 2.27 5.63 2.76s.1.57 2.32.59c-.16.12 0 .12.37.07 1.22 1 3.74 2.92 2.44 1 2.4-1.05 2.11.21 7.9.08-.06-.82.75-.8.76-1.56.52.15.89.31.84.39.26-.05.67-.12 1.14-.18a.74.74 0 0 0 .78 0l-.14-.08 1.66-.2c-.28.15-.34.69-.47 1.11 1.25.21 2.21 2.83 3.27 1.25.27-.61-1.4-.18-.74-1 .43-.69 1.91.57 1.87-1-.9-.17-1.36.07-1.29-.91l1.44.43c-.49-3.06 2.24-3 3.21-5.49-1-.17-.79-1-1.32-1.4a4.5 4.5 0 0 0 .61.1c0 .07 0 .13.27.17a7.77 7.77 0 0 0 1.65.11c-.51-.07-.53-.11-.28-.16 1.19.16 2.51 0 3.82.22 0-.27.94-.17 1.84-.21 0-.07-.14-.17.17-.21a2 2 0 0 1 .77.11c-.41 0-1.36.22-.65.22 0-.13 1.61-.13 1.59-.28-.51.08-.75.05-.75-.05.61 0 .46-.15 1.37-.24.05-.14 0-.27.34-.4.64.14 1.23-.26 2-.43 0 0 .07.06.1.06a7.59 7.59 0 0 0 .84-.09 2 2 0 0 1 .61.06 7.26 7.26 0 0 0 1.11-.38 1.47 1.47 0 0 1-.74 0l.15-.07.27-.1a20.51 20.51 0 0 1 2.89-.24 8.82 8.82 0 0 1 2.51-.4 6.14 6.14 0 0 0 1.05-.39 3 3 0 0 0 1.42-.14 3.34 3.34 0 0 0-.42.29c-.41.14-.45.1-.26-.05-1.56.76-2.89 1.23-4.25 1.78 0 0-.06 0-.06-.06a2.23 2.23 0 0 0-.46.27h-.11c-.09 0-.68.19-.66 0-.18.2-1 .45-1.26.64a4.36 4.36 0 0 0-.53.23c-.85.16-1.41.14-1.3-.22a25.72 25.72 0 0 0-6.08 1.78c-.2.23-.21.42-.1.55-.72.2-1.38.39-1.94.57.55-.15 1.38-.28 2.14-.44a4 4 0 0 0 1.93 0c2.52-.44 5-1.84 6.94-2.17.65-.28 2.67-1 3.55-1.47h-.07a84 84 0 0 0 5.81-2.47c1.17-.35 2.05-.61 1.84-.36a26.86 26.86 0 0 1 3-1.48c0-.17-.54.07-.41-.19a5 5 0 0 0 1.49-.75c-1.58.63-1.65 1-3 1.56 0-.11 0-.15-.2-.13 2.19-1.12 4.26-2.28 6.14-3.42.62-.56 3-1.87 3.61-2.67a.38.38 0 0 0 .2.06 4.74 4.74 0 0 1 .48-.49 8.2 8.2 0 0 0 1.3-.91l.26-.23c-.2.48 1-.75 1-.45.7-.67 1.72-1.19 1.94-1.59-1 .77-1.61 1.38-2.06 1.44a29.32 29.32 0 0 1 2.71-2 20.93 20.93 0 0 1 2.65-2.35c-.08-.22.87-.72 1.16-1.19 0-.11-.31.13-.1-.09a7.78 7.78 0 0 1 .78-.76c-.06.11-.07.19.11.22.43-.24.4-.44.38-.65a4.17 4.17 0 0 0 .53-.55c-.18.18-.36.34-.37.23.43-.48.49-.37.92-.85 0-.1-.3.15-.56.4-.11-.12-.27 0-.39-.05.3-.58 1-.66.95-1.11.17-.16.29 0 .42.06a11 11 0 0 1 2-2.35c-.16-.06-.4.47-.57.35-.15-.42 1.77-1.53.79-.44.28.08.66-.79 1-1.09-.26-.07-.18-.3-.28-.44.15-.17.16 0 .1.07.65-.16.83-1.85 1.52-1.73.41-.51 0-.58.48-1.15.27.06 0 .37-.14.64.34 0 .65-1 .69-1.26.23-.28.21.43.64-.34.29-.34.06-.42-.08-.54.28-.62.92-.95 1.37-1.59.07-.1 0-.27.1-.41s.28-.25.32-.3c.25-.45.64-1.25 1.09-2 .2-.33.49-.93.67-1.28s.73-.76.63-1.29a1.23 1.23 0 0 1 .24-.8 1.55 1.55 0 0 1 .3-.08c0-.07.08-1.53.77-1.46.35-.74.59-1.14 1.06-2.26a5.71 5.71 0 0 1 .41-.73c.08-.26-.11-.38 0-.66.22-.62.57-.39.35-1l.54-.47c1.05-2.87 1.93-5.71 2.76-8.27a.86.86 0 0 0-.26-.47 20.93 20.93 0 0 0 1.67-5.82c0-.55.47-.11.44-.78-.38 0-.45-.32-.53-.7.39-.11.18.59.54.48.08-.51.13-1-.13-1.06a.52.52 0 0 1 .66-.21zM256.38 46c.19.23.55.65.49.84-.08-.12-.55-.79-.49-.84zm-152.87-1.9c-.22.48-.44.93-.55.9.1-.25.13-.42 0-.45a10.12 10.12 0 0 0 .61-1.34c.25-.11-.23.62-.38 1 .29-.29.06.17.32-.11zm.67-1.78a3.41 3.41 0 0 1 .69-1.29 3.83 3.83 0 0 1-.7 1.29zm-7.7 24.42c.11.06-.12.88-.17 1-.15-.18.06-.74.17-1zM96 71.23c0-.25.07-.6 0-.64 0 .31-.05.78-.13.83 0-.76.08-.5.17-1.25.07.22.27.9.16 1.1-.01-.64-.2.18-.2-.04zm.17 3c0 .28.09.21.09.44-.07 0 0 .22 0 .42-.1.05-.09-.31-.14-.45 0 .31-.09 0-.1-.23-.02.02.06-.08.1-.19zm-.26 1.45c0-.88.28-.49.37-.16-.21.34-.22.3-.42.15zm.24-3.87c.43 0 .4.66.41 1.23-.48-.04-.46-.67-.46-1.24zM237.2 22.88c-.2-.17-.19-.06-.36-.19a3.73 3.73 0 0 0-.88-.83s0-.13-.07-.24zm-16.48-10.53c.21.29-1.49-.53-1.31-.61s.79.45 1.31.61zm-7.9-4.7c.51-.06.82-.32 1.53-.15.23.53-.74.09-1 .1-.09 0 0 .2-.07.22s-.53-.06-.47-.06c-.31 0-.59-.18-.91-.22-.14-.41.52 0 .91.11zm1.23.73a.2.2 0 0 1-.19.16l-1.81-.77c.78-.01 1.19.39 1.95.62zm-2.67-1.64l-1.11-.4c-.27-.46 1.55.18 1.11.4zm0 .76h-.07l-1.9-.78c.41-.07 1 .41 1.41.22-.12.22.62.34.58.56zm-2.7-1.68c.23.09 1.31 0 1.08.48-.47 0-2.32-.65-2.16-1.08.64.04.64.39 1.11.6zm-4.53-1.33l.42.19-.38-.1c-.27-.11-.06-.08-.01-.09zm.48 11.08a6.62 6.62 0 0 1-1.06-.35s-.47-.16-.51-.24zm-.35-5.06c.61.31 1.49.38 1.68.72a9.14 9.14 0 0 1-1.65-.73zm1.12 5.38zm-3.55-6.42c0 .07.07.14.25.23-.14-.18.73.08.81.22-.53-.24-.44 0-1-.24-.21-.14-.67-.4-.03-.22zm-1-4.68c0 .07.12.13.11.22a4.5 4.5 0 0 1-.83-.24 4.12 4.12 0 0 1 .79.01zm-.68 11.59c0 .15-.89-.11-.86-.24.47.16.54.07.93.23zM200 3.08c-.13 0-1-.12-1-.23.29.01.87.05 1 .23zm-2 20.77c-.25 0-.9-.16-.75-.27.26.08.9.17.75.27zm-.61-14.1c-.41-.17-1.08-.34-1.36-.49a4.12 4.12 0 0 1 1.33.49zM195 9.09a13.52 13.52 0 0 1-2-.59 14.86 14.86 0 0 1 2 .59zm-1.22 4.33c.41-.19.93.61.6.66-.42-.1-.26-.38-.65-.48.14-.05.27-.12.08-.18zm-4-.31a.75.75 0 0 1 .57-.47 2.82 2.82 0 0 1 1.08.7c.44 0-.15-.29.24-.34a8.34 8.34 0 0 1 1.66.29c.39.26-.82.33.16.54-.51.15-1.36-.6-1.81-.24-.53-.16-.76-.41-1.26-.57.58.36-.06.2-.6.1zM191.94 3a.28.28 0 0 1 .13 0 1.14 1.14 0 0 1-.39 0 .07.07 0 0 0 0-.08 1.69 1.69 0 0 1 .26.08zm-.28.15a.35.35 0 0 0 0-.08c.16 0 .32.07.48.09a1.49 1.49 0 0 0 .17.2c-.51-.13-.7-.06-.85.05l-.59-.09a5.3 5.3 0 0 0 .79-.14zm-1.11.39l.45.09a1.2 1.2 0 0 1-.49 0s.03-.04.04-.06zM191 8.5c-.39-.1-.92 0-1.12-.18.64 0-.57-.16-.44-.25a4.63 4.63 0 0 1 1.56.43zm-.67 5.41c-.62-.19-.4 0-.89-.06-.14-.19.74-.08.92.06zm-2.21-11.44l.52.07a.62.62 0 0 1 .23.14h-.31s.15.07.34.09a.13.13 0 0 1 0 .1l-.9-.08c-.19-.21-.06-.3.12-.32zm.26 5.33h-.16a1.2 1.2 0 0 1 .46.16 2.35 2.35 0 0 0 .48 0c0 .14-.53 0-.82 0-.06-.09-.43-.15-.14-.18a2.7 2.7 0 0 1-1.4-.27c.56.27 1.2.11 1.58.29zm-1.8 4.42v.28c.42 0 1.06-.28 1.2.16.21 0 .16-.22.21-.35h.3c0 .09.17.11.29.14-.05.17-.52 0-.51.21a4.88 4.88 0 0 1 1.37.13c-.39.59-1.61-.26-2.41-.27a2.55 2.55 0 0 1-1.4.12c.39-.22-.05-.58-.7-.55.07-.37.99.36 1.65.14zM182 12c.47.07.55-.15 1.07 0 .05.15.48.11.27.4a2.58 2.58 0 0 0 1.07 0 .38.38 0 0 0-.28-.22c.55-.27 1 .28 1 .57-1.05-.1-2.11-.18-3.16-.21.14-.4.13-.29.03-.54zm3.59-10.8a11.62 11.62 0 0 1-2.33-.2c.74 0 1.56.07 2.35.15zm-4.66.8c.39 0 .14-.15.62-.12l1.28.19a1.27 1.27 0 0 0 .41.07.63.63 0 0 1-.42.16 5.31 5.31 0 0 0-1.45-.08h-.4.06-.49c-.32-.07-.84-.14-.4-.2a4.29 4.29 0 0 0-1.26-.06c-.2 0-.14-.12-.22-.27 1.03 0 2.61.09 2.27.31zm.5 9.1c0 .21-.65 0-.93.08.02-.29.75-.25.94-.11zm-3.39.68c-.13.14-.11.37-.6.31l-.45.12a.33.33 0 0 1 .1-.34l-1.62.4s.38-.33-.46-.2h-.17c.18 0 0 .06-.24.07-.81.23-1.68 0-1.93.12-.21 0-.23 0-.2-.07h.05v-.05c0-.05.16-.13 0-.15a.38.38 0 0 1 .05-.19h.5c.12.09.28.14.27.33L174 12a1.8 1.8 0 0 0-.22-.3l1.73-.07c.36 0 1.46-.23 1.84-.26l.79.22-.38.08a1.32 1.32 0 0 1 .24.08zm-7.87 10a11.21 11.21 0 0 0-1.14-.07 1 1 0 0 0-.58.25c.09-.15-.61 0-1.34.14a9 9 0 0 1-1.62.34 20.36 20.36 0 0 1-2.57.69c.11-.35 2-.76 2.39-.75a12.7 12.7 0 0 1 2.88-.81c.09-.17-.53.05-.52-.08s.15-.1.12-.17a5.59 5.59 0 0 1 1.9-.22c1.64-.41 2.81-.45 4.35-1a9.14 9.14 0 0 0 1.44-.06c.5-.1-.44 0-.64 0a8.83 8.83 0 0 1 1.64-.25v.06h-.07.07l.11 1c-1.25.1-2.49.19-3.68.24a10.84 10.84 0 0 0-1.05.33c-.3 0-.16-.16-.65 0-.06.35-1.21.04-1.03.36zm-2.31.4a6.06 6.06 0 0 1-1.54.34 5.86 5.86 0 0 1 1.55-.34zm-3.6-8.49h.08l-.07.05a.07.07 0 0 0 0-.04zm.6-.16c0 .14.57.17-.09.36-.25-.01-.41-.25.1-.36zm3.77-2.71a6.3 6.3 0 0 0 .74-.09l.82-.06c-.17.21-.06.26.5.14a.32.32 0 0 0-.1.41c-.95.09-1.82.21-2.56.35a1.49 1.49 0 0 0-1 0 1.19 1.19 0 0 1 .22.21h-.17c-.64.11.35-.22-.21-.11l-.81.17a.7.7 0 0 0 .07-.37 16.6 16.6 0 0 1 3-.45c.59-.22-.22-.13-.5-.19zm1.37-.21l.23-.08v.05zm1.79 1.83l-.12-.08.12-.07c.61 0 1.21 0 .93.29-.68 0-.34 0-.88.15a6.09 6.09 0 0 0-1.12.06 1.19 1.19 0 0 0 .69-.27zm-.32-2.14h.8a2 2 0 0 0 .51-.07c.2 0 .38 0 .62-.09a.39.39 0 0 0-.21.35 2.67 2.67 0 0 1-1-.1 3.61 3.61 0 0 1-.63.1.71.71 0 0 1-.08-.18zm-.66.33zm.06-.11h-.38l-.15-.05a3.7 3.7 0 0 1 .54-.14s0 .14.01.2zm-2.59 2.41a7.55 7.55 0 0 0 1.75-.55.27.27 0 0 1 .29.18c-.58.11-1.19.24-1.94.35a8.68 8.68 0 0 0 2-.21.26.26 0 0 0 .13.09c-.76.1-1.61.28-2.48.44a.58.58 0 0 1 .27-.29zm-.5-.22l-.08-.28c.14 0 .28 0 .42-.05a.42.42 0 0 1 0 .35 2.63 2.63 0 0 0-.32-.01zm.6-.37h.07c-.07-.07.18-.11.3-.17a.34.34 0 0 1 .23.28c-.36.12-.46.01-.58-.1zm.87-.25l.5-.05a.6.6 0 0 0 .08.39c-.37.06-.43-.17-.56-.34zm-2.07 1.32h-.07zm-.63-.54l-.29-.1a.16.16 0 0 1 .05-.07l.27-.06c.1.06.14.12-.01.24zm-.27-.39a.48.48 0 0 0 .18.1l-.52.09v-.13zm.11 9.15a9.3 9.3 0 0 1-.91.26c-.15-.14.77-.33.93-.25zm-1-8h.06-.06zm13.83-1.5c.3 0 1-.46.91 0a11.68 11.68 0 0 1-2.12.13c.2-.39.89-.14 1.26-.15zm.21-10C179 2 177.85 2.16 178 2c.63.09 1.28-.08 1.48.08zm-1.06-.23a19.27 19.27 0 0 1-2.32-.2c.76 0 1.8-.2 2.1 0-1.15.01-.04.08.27.16zm-1.08-1h.27a1.67 1.67 0 0 0-.28.06s.06-.11.06-.13zm-1.93 0h1.48a12.49 12.49 0 0 1-1.48 0s.05-.03.05-.05zm1.17 1.1c-.86 0-1.15.07-1.67 0 .29-.1 1.67-.18 1.67 0zm-6.17 7.42a15 15 0 0 1 4.33-.22h1.63l-.15.15c-.07 0-1 .12-1.08.13-1.07 0-1.61.11-2.8.18-.21 0-.11 0 0-.05-1.7.18-1.11.4-3.68.61a11 11 0 0 1 2.39-.53c.18-.08.15-.19.34-.27.84-.15 2.18-.05 2.8-.27a37.13 37.13 0 0 0-4.13.32c.2.14.35 0 .94-.07.24.3-1 .15-1.07.42-1 .11.41-.47-.81-.23h.39a3.76 3.76 0 0 1-.54.17c-.38-.21-1.45 0-3 .29.09-.08.88-.28.55-.24a30.66 30.66 0 0 1 3.89-.42zm-3-8.28c-.27 0-.17.11-.39.15a3.93 3.93 0 0 0-1.27.08c0-.07-.12-.08-.24-.11zm-1.91 12.38c-.45 0-.48-.17-1.22-.12a.72.72 0 0 1 .2-.17 4.12 4.12 0 0 1 .81 0c.03.08.11.17.18.26zm-1.1-.52h.17a.19.19 0 0 1-.09 0zm-.55-1l1.39-.37a2.25 2.25 0 0 0-.07.37l-1.4.28a.54.54 0 0 0 .08-.28zm-.95 1.19l.55-.13a.77.77 0 0 0 .27.13c-.06 0-.16.06-.18.08h.28s.1 0 .13.07a1.47 1.47 0 0 1-1.09 0s.04-.08.05-.13zm-.44.89l.24-.06a1.94 1.94 0 0 1-.67.3s0-.08-.09-.11c-.07-.19 0-.34.24-.44a.63.63 0 0 0 .34.17c-.13.06-.23.19-.06.16zM160 24.33c.22.06 1.33-.51 1.38-.32-.5.19-1.09.44-1.45.55.45-.13-.41-.04.07-.23zm-.64-10.17a.47.47 0 0 0 .13-.11l.76-.13c0-.11.44-.22.65-.33a3.48 3.48 0 0 0 .41 0 1 1 0 0 1-.06.75l-.52.19c.13-.22.25-.58-.12-.55-.36.19-.6.41-.56.69h-.12.13a.2.2 0 0 1 0 .07s-.07.09-.07.14h.1-.11c-.23 0-.37 0-.41-.1 0-.17.23-.29.23-.46s-.3-.04-.41-.16zm-1.31.55l-.4.13a.42.42 0 0 0-.13-.28c.13-.06.29-.11.39-.17a2.35 2.35 0 0 0 .25.24.78.78 0 0 1-.17.08zm.13.4a.46.46 0 0 0 .22.19 7.16 7.16 0 0 1-.93.14 1.24 1.24 0 0 1 .75-.33zm.18 0l.74-.14a2.15 2.15 0 0 1-.69.27.342.342 0 0 1-.01-.17zM158 5.39c.12-.19.82-.16 1.38-.37.17.14-.98.23-1.38.37zm.92-.42c.27-.13 1.32-.41.14-.21.21-.25 1.28-.27 2-.41a17.63 17.63 0 0 1-2.19.65zM161 14.5a1.17 1.17 0 0 1-.7.32c0-.08.19-.13.3-.19a2.25 2.25 0 0 1 .4-.13zm-.22 9.26a3.42 3.42 0 0 0 1-.34c.28.24-1.31.51-.96.33zm.75-11.12l.47-.13a.32.32 0 0 0 .14.07l-.55.09zm.24 1.91l.07-.07h.18zm.53-10.13c-.48.16-.79.12-1.61.31-.01-.15 1.31-.34 1.64-.32zm-1-.93a13.22 13.22 0 0 1-1.44.24c-.23-.15 1.69-.49 1.52-.24zm-1.83.36c-.46-.06-1.36.09-1.57-.08.89-.11 1.7-.21 1.64.08zm-9.23 2.71c.09.07.55-.1.65 0-.55.18-1.31.51-1.4.4.72-.22.51-.28.83-.41zm-2.07.92a3.61 3.61 0 0 1-1.19.36 2 2 0 0 1 1.27-.36zM148 6.42c.38 0-1.38.78-1.34.58.23-.2.89-.3 1.34-.58zm1.06.89a12.57 12.57 0 0 1-2.5.93 21.06 21.06 0 0 1 2.51-.92zm-3.84 1.45a5.15 5.15 0 0 1-1.5.67c.25-.15 1-.38.91-.46-.28.1-.94.49-1 .38a4.34 4.34 0 0 1 1.6-.59zM139 11.45a10.71 10.71 0 0 1-1.85.9c.38-.1 1.53-1.02 1.85-.9zm-2 1.09a14.16 14.16 0 0 0-2.29 1.36c.29-.5 1.9-1.22 2.29-1.36zM121.73 23c.23 0-1.21 1.22-1.11.89.48-.24.84-.75 1.11-.89zm-9.06 9c-.69 1 0 .15.29 0a15.83 15.83 0 0 1-1.58 1.66c.47-.66.93-1.66 1.29-1.66zm-.67-1.33c.1.25-.43 1-.56 1.42-.32-.09.11-.74.56-1.42zm-.85 1.72c-.18.43-.46.55-.86 1.19-.29.06.84-1.52.87-1.19zm-1.56 3.48a2.7 2.7 0 0 1-.66.8c.07-.29.57-.92.67-.8zm-1.19.85c0 .12-.05.22 0 .25a3.24 3.24 0 0 0-.6 1.05.31.31 0 0 1-.11.1c.17.25-.9 1.39-.31 1-.37.69-.66.74-.55.4.49-.81.45-.67.85-1.41a.36.36 0 0 0-.2.17zm-1.4 2.42c-.36.64-.73 1.64-1 1.81.27 0-.35.87-.41 1.18-.07-.21-.31.24-.38 0 .41-.9 1.15-1.78 1.79-2.99zM96.84 64.56c.09-.36.15-1.23.27-1.23-.09.59 0 1.68-.27 1.87.1-.57.16-1.07 0-.64zm0 3.18c.55-.06.33 1.18-.16.9zm-.16 17.45c0-.68-.36-.13-.18-.85 0 0-.07-.17 0-.22 0 .25.1.23.17.22a3.4 3.4 0 0 1 .02.85zM96.9 75v.3c-.11-.07-.18-.17-.14-.43h.17s-.02.13-.03.13zm-.09-2.19c.12-.1.24-.18.36-.28 0 .17 0 .34-.06.48a.33.33 0 0 1-.3-.17zm.3 10.26h.16l.05.83c-.13.1-.15-.39-.21-.79zm.19-.2a5.94 5.94 0 0 1-.12-1.25h.15c.04.59.11 1.26-.02 1.29zm.06-17.36l.17-1h.15c-.09.39-.18 1.14-.32 1.03zm.23 3.35a1.62 1.62 0 0 1 0-.54h.08v.76a.58.58 0 0 1 0-.14zm.21 17.34l-.21-3.39a22.1 22.1 0 0 1 .05-3.45c0 1.07.07 2.63.15 4a12.12 12.12 0 0 1 .02 2.88zm0-17c.07-.38.13-.81.19-1.24a2 2 0 0 1 0 1.35.49.49 0 0 1-.23-.06zm.34 20.52c0-.51-.26-1.61-.08-1.66-.06.7.25 1.43.05 1.7zm.65-26.22c-.12 0-.07-.26-.17-.25.22-.81.17-1.52.38-1.61 0 .55-.16 1.24-.24 1.91zm.15-2.3c0-.29.24-1.43.39-1.39-.05.23 0 .23.1.24-.2.7-.35 1.1-.52 1.19zm.52-1a1.11 1.11 0 0 1 0-.46 1.08 1.08 0 0 1-.03.53zm.39.73c-.08-.15-.19-.27-.27-.42s.1-.52.14-.74c0 .21-.15.56.19.47.33-.26.55-1 1-.86-.25 1.15-.91.42-1.09 1.62zm.8-3.62c-.05.09-.1.18-.14.27-.2-.29.1-1.23.5-.77l-.29.85a.2.2 0 0 1-.12 0c.02-.13.06-.27.02-.29zm.1 22.6a7.7 7.7 0 0 1 .16-2.86c-.13.58 0 1.3-.1 1.9.06.42.13-.24.15.19a43.48 43.48 0 0 0 0 4.46c-.06-.49-.19-.94-.27-1.44.01-.74.05-1.58.03-2.16zm.45 14.93c-.08-.43-.42-.24-.43-.85.36-.31.49-.22.85.13.12.65-.2.66-.45.78zm.8-42.27a.8.8 0 0 0-.29.46 2.16 2.16 0 0 1-.19.74v-.06a1.29 1.29 0 0 0-.16.46 4.29 4.29 0 0 0-.27.56 18 18 0 0 1-.84 2.35 7.83 7.83 0 0 0-.56.77c-.48 1.05-.89 2.16-1.28 3.29a26.8 26.8 0 0 0-.38 2c-.47.19-.54 1.67-.78 2.16v-.39c-.08.31-.17.62-.25.93a21.77 21.77 0 0 1 .44-2.62s.07.06.09.13a4.65 4.65 0 0 1 .19-.49c.14-.6.21-1.24.3-1.77.42-1.21.8-2.51 1.2-3.82l.11-.46v-.05c.15-.51.31-1 .47-1.52a27.52 27.52 0 0 1 2.29-5.51 26.23 26.23 0 0 1 2-4.8c.06.37-1 2.09-.89 2.45.22-.44.73-1.58 1.24-2.5a6.43 6.43 0 0 1 .88-1.37c-.09 0-.15-.11 0-.43.23-.5.29-.31.49-.66a5.73 5.73 0 0 1 .94-1.89c.54-.86 1.19-1.78 1.52-2.24-.09.13-.17.17-.21.12.28-.26.79-1.51 1.38-2-.28.37-.43.63-.38.7.64-.58.22-.66.8-1.38.14 0-.29.5-.21.57.37-.59.93-1.31 1.51-2.06a4.58 4.58 0 0 1 .56-.71c.67-.83 1.32-1.63 1.74-2.17 0-.28-.46.47-.43.19.21-.2.62-.82.69-.74s-.14.31-.14.39a67.94 67.94 0 0 1 6.93-7c.55-.19 2.19-2 3.09-2.61 1.17-.86 3-2.39 4.65-3.56 2.64-1.91 5.61-3.46 7.9-4.94.07 0 .08.14.44-.08 0-.07-.17-.11.06-.25s.69-.31 1-.41a2.74 2.74 0 0 1 .65-.3l-.24.16a3.55 3.55 0 0 1 .6-.12 3.54 3.54 0 0 1 .59-.55c-.33.14-.84.55-1.1.53a3.43 3.43 0 0 1 .86-.52c.92-.1.38-.07 1.58-.53a1.13 1.13 0 0 0-.5.33c.76-.52 2.21-.86 3-1.35-1 .34-1.31.52-2.14.76 1-.46 1.2-.52 2-1 .23 0-.48.37.1.16.79-.54 2.52-.66 3.67-1.31-.38.17-1.09.32-.63.13a8.19 8.19 0 0 1 1-.26c.58-.56 2.13-.77 3-1.2a1.29 1.29 0 0 1 .68 0 11.16 11.16 0 0 1 2.47-.9c.16.11-.89.28-.92.4 2-.58 2.57-.88 3.45-1.19.45-.12.27.08.65 0-.41-.12 1.1-.5 2.11-.73 0 .17.07.22-.11.31a4 4 0 0 0-1.18.3c.6 0-.53.29-.5.39-.43.07-.46 0-.26-.08-1.44.43-3.31.79-4.72 1.3 0 0 .31-.19-.06-.13.38.06-.65.22-.53.3.6-.08-.36.32-.67.45.18-.13.15-.17-.26-.07-.31.4-1.48.43-1.87.76-.48.09.31-.27-.46 0l.1.16c-.69.25-2.67 1-3.22 1.23s.65 0-.27.32c0-.25-2 .93-2.38.72-1.62.88-2.44 1-3.77 1.91a3.27 3.27 0 0 0-1.29.6c.28-.18.84-.32.42-.1a52.84 52.84 0 0 0-7.35 4.07c-1.39 1.11-2.67 2-4.26 3.29v-.13c-1.23 1-2.86 2.1-4 3.05-.11.13-.11.16-.06.15.31-.25.59-.45.71-.41l-.6.56c-.52.35-.85 1.07-1.18 1.08 0-.2 1.49-1.42.67-1a7.76 7.76 0 0 1-1.89 2.05c.5.19-1.61 1.92-2 2.7a7.71 7.71 0 0 0-1.86 1.83 8.79 8.79 0 0 1 2.55-2c-.15.17-.4.4-.37.45.84-.75.31-.64 1.13-1.36-.14-.13-.88.77-1 .7a27.72 27.72 0 0 1 3.01-2.95c-.51.4-.07.29-.47.64-.17.09-.94.67-.92.78a9 9 0 0 1-2.49 2.8c-.18.6-1.19 1.27-1.35 1.46.4-.37 0 .23-.09.41-.19-.15-1.46 1.43-.61.77-.52.62-.73.67-.8.64a12.48 12.48 0 0 0-.82 1.56c-.1-.08.1-.38-.3 0-.24.41 0 .16-.12.39s-.17.16-.21.11c-.13.75-1.59 1.8-1.66 2.2.14-.2.29-.37.32-.27a9.09 9.09 0 0 1-1.43 1.67c0 .35-.46.52-.82 1.12a4.58 4.58 0 0 1-.76 1.71c-.43.72-.87 1.35-.93 1.18a4.23 4.23 0 0 1-.89 1.75c.12.32.71-1.12 1-1.28a7.11 7.11 0 0 1-.62 1.19 4.52 4.52 0 0 0-1 1.57c-.19.18-.34.29-.42.2a1.63 1.63 0 0 0-.1.27 2 2 0 0 0-.39.39v.07c-.21.28-.42.61-.62.89.07 0 .13.05.17.19s-.05 0-.07.1a5.12 5.12 0 0 1-.38 1.38 1.26 1.26 0 0 1-.14.13c.32-.37 0-1-.17-.58-.26 1.24-1.18 2.21-1.37 3.34a.61.61 0 0 1-.32.31.92.92 0 0 0 .07-.37 4.91 4.91 0 0 0-.29.54zm54.71-36.87l-.38.18c.06-.13.32-.26.74-.43a.38.38 0 0 1 .07.16h-.06.08a1.23 1.23 0 0 1-.22.08c-.52.31.38-.19-.23.01zm-.77.37l-.26.12h-.23l.26-.14a2.27 2.27 0 0 0-.76.17c-.2 0-.34 0-.25-.08.67-.14.51-.41.59-.64a1.26 1.26 0 0 1 .89 0c-.68.27-.71.5-.24.56zM150.67 18c0-.07.08-.13.07-.2a.77.77 0 0 0 .28.13l-.4.18v-.1zm-.06-.41c0-.32-.61-.18-1-.12h.18c.22-.12.61-.31 1-.5a.6.6 0 0 1 0 .26 2 2 0 0 1 1.26-.26l.49-.46 1-.37c.06-.07-.35.07-.82.24l.17-.15a4.44 4.44 0 0 1 .45-.11 4.65 4.65 0 0 1 .67-.29l.1.19c-.87.29-1.31.57-.69.83-1.01.32-1.83.39-2.81.75zm.75-10.16c0-.05.66-.36.77-.27s.12-.09.15-.14c.59-.12.25 0 .27.12-.55.21-.55.09-1.18.3zm.36 9.24a1.09 1.09 0 0 1-.3 0l.37-.14c.09.02.12.04-.06.15zm1.54.43a5 5 0 0 0 .81-.41h.06a1.93 1.93 0 0 1-.87.44v-.02zm1 9.15a11.94 11.94 0 0 1-2.25 1.1 14.91 14.91 0 0 1 2.21-1.09zm-.87-19.35c.11-.07.21-.14 0-.08-.08-.08.68-.2 1-.3a1.87 1.87 0 0 1-1.04.4zm-5.6 2.24l-.76.28c0-.14.42-.33.86-.51-.17.09-.19.18-.14.25zm-.9 9.86c-.58.17-.37.4-.83.59-.66-.35.69-.94.83-.59zm-1.49-9.1c-.24-.1.87-.39 1.27-.58-.2.2-.46.2-1.27.55zm-.21 10.93l-.18.09zm-1.6 1.27l-.28.08c-.06-.45.81-.6 1.37-.72zm.5 10.33c-.14.2-.67.57-.69.37.24-.18.72-.63.69-.4zm-7.77-6.6a3.5 3.5 0 0 1 .8-.85.4.4 0 0 1 0-.11c.4-.25.63-.13 1.11-.52a.18.18 0 0 0-.07-.15l.28-.17c-.11.16-.13.25.3 0a.32.32 0 0 1 0 .15 1.9 1.9 0 0 1 .51-.46v.16l-.63.41a14.11 14.11 0 0 1-1.23 1 .4.4 0 0 0-.12-.12zm.26 1l-.21.16.2-.16zm4.73-15.19c0-.17 1-.54 1.62-.81.46 0-.15.32.22.37-2.27.95-3.73 1.79-5.87 2.66 1.32-.8 3.21-1.65 5.37-2.71-.26-.15-.87.37-1.34.43zm-.37 9.89a.92.92 0 0 1 .27-.29c.23-.13.46-.24.71-.36 0 0 .07 0 .06.08-.35.12-.69.3-1.04.51zm.78-.25h-.12zm-2.22.9l.29-.16a.63.63 0 0 1-.29.1zm.34.57s-.12.12-.23.19zm.23 1c-.19.1-.37.2-.52.31a1.58 1.58 0 0 1 .53-.34zm-2.37.55a.11.11 0 0 1-.07-.06c.22-.18.43-.33.65-.48a1.15 1.15 0 0 1 .39-.12c-.35.19-.67.36-.96.63zm.54-.18l-.08.08zm-.24-.62l.47-.3c0 .12-.07.25-.4.39a.12.12 0 0 1-.07-.09zm2.63 11.38a12 12 0 0 1-1.94 1.48 13.16 13.16 0 0 1 1.94-1.48zM140.15 24a6.68 6.68 0 0 1-.72.24.57.57 0 0 1 0-.08c.27-.17.61-.36.92-.52s.3 0 .35 0h.06zm.62-1.12l-.6.4s0-.19.13-.32c.27-.19.57-.38.84-.54a.92.92 0 0 1 .13 0 5.17 5.17 0 0 1-.5.46zm.52-.65l.5-.29a.12.12 0 0 1 .06.1c-.29.22-.44.22-.57.19zm1.06.55l-.72.4a.24.24 0 0 1-.1-.11 2.19 2.19 0 0 1 .82-.29zm-1-1.06c.43-.29.3-.29.07-.25l.34-.21c0 .05 0 .09.1.13.6-.26.55-.51 1-.76a.62.62 0 0 1 .18 0l-.48.37.54-.31a.35.35 0 0 0 .09.32c-.67.26-1.46.91-1.88.71zm1.83.53v.06h-.08a.19.19 0 0 1 .04-.07zm-8.58 18.31c.39-.37 0 .32.27 0-.24.27-.73.67-1.1 1-.23-.07.77-.81.79-1.01zm-1.61 1.21a3.15 3.15 0 0 0 .74-.76c.27-.24-.62.99-.78.75zm1-14.15c-.26-.24.83-1.14.91-.47-.42.31-.58.04-.97.46zm-.07-11.76a4.61 4.61 0 0 1-.72.37c.26-.2.48-.49-.26 0 .54-.41 1.66-1 2.57-1.54-.26.38-1.83.93-1.65 1.16zm-2.77 14.34c-.72.69-1.09 1.35-1.86 2.08 0-.61-.49-.36-1.12.28l-.18-.17a4.11 4.11 0 0 1 .57-.44 2.41 2.41 0 0 1 .25-.32l.27-.11c-.37.34-.66.64-.57.61l.77-.69.64-.23c.18-.31.13-.59.74-1a.84.84 0 0 1-.28-.1c.36-.3.7-.54.91-.68a2.24 2.24 0 0 1 .17-.25c-.14.33-.66.82-.31 1.02zm-2.26 2.65a.14.14 0 0 1 .05-.09 4.5 4.5 0 0 0 .7-.51h.07c-.39.39-.71.59-.82.6zm.43 15.28a1.59 1.59 0 0 1-.55.75c.03-.11.46-.97.55-.75zm.68-3.83a7.65 7.65 0 0 1-.61.69c-.01-.17.52-.89.61-.69zm.32.95a5.24 5.24 0 0 1-.93 1.18c.11-.34.69-.85.95-1.18zm.23.77c.24-.16 0 .16.26 0a11.44 11.44 0 0 1-1.38 1.84 17.09 17.09 0 0 0 1.14-1.86zm-2.62-12.27l-.13.18-.22.17c.08-.43-.13-.47-.69 0 0-.21.13-.46.39-.72.27 0 .48.25.87-.27.1-.05.09 0 0 .21a1.76 1.76 0 0 0-.48.61zm-1 1.09l-.17.16a.24.24 0 0 0 0-.08l-.05.06a.53.53 0 0 1-.13-.13c.33-.31.58-.5.75-.48l-.35.27c-.5.42.33-.17-.07.2zm4.2-17.35A11 11 0 0 0 130 18a6.38 6.38 0 0 1 1.51-1c.14.1-.79.53-.4.49zm-1.91.84c0-.29 1.35-.89 1.61-1.18-.28.4-.97.64-1.63 1.18zm.75 12.2a.73.73 0 0 1-.15.27c-.19.13-.21.1-.17 0zm1.71-.09l-.28.23a.76.76 0 0 0 0-.27.74.74 0 0 0 .26.04zM131 17.11a6 6 0 0 1 2.22-1.36 14.41 14.41 0 0 0-2.22 1.36zm1.86-.86a1.75 1.75 0 0 1-.76.64c.04-.14.49-.54.81-.64zm-8.06 20.87l-.06.1.08-.07a.26.26 0 0 0-.15 0l-.09-.06a.52.52 0 0 1 0-.1l-.06.09c-.28-.14-.6 0-.94.22-.17.3.24.34.52.31l-.4.36a1.3 1.3 0 0 1-.79-.21 2.3 2.3 0 0 0 .19-.34c.2-.14.47-.46.59-.43l.41-.57a.73.73 0 0 0 .19-.09c.08.13-.2.35-.07.46s.41-.12.57 0l.06-.05c.05.06 0 .22-.07.41zm-.15.25a1.22 1.22 0 0 1-.62.47l.23-.27c.12-.04.27-.27.39-.21zm-.87 1.14l-.22.2a1.13 1.13 0 0 1 .06-.13zm-.87.36v-.36a.38.38 0 0 1 .53-.08c0 .08 0 .15.09.17-.21.28-.38.29-.58.46l.15-.18c.09-.16-.04-.1-.19-.02zm-1.77-13.71a19.14 19.14 0 0 1 1.92-1.73c-.06.31-1.4 1.27-1.92 1.71zm1.4 40.4c.06-.48.19-.64.25-1.2.21-.04-.08 1.17-.25 1.18zm-.68 13.53c0 .11 0 .17.1.16-.15.49.14.76 0 1 0-.18 0-.35-.1-.31.14-.58-.11-.54 0-.87zm-.49-38.86a1.52 1.52 0 0 1 .26-.12c-.36.66-.11.7-.35 1.11l-.17-.27a2.75 2.75 0 0 1 .27-.74zm-.31 0l.09-.15v.08zm.52-2.27l.31-.35v.06l-.3.42a.25.25 0 0 0-.01-.09zm-.16 3.3v.06zm-.1 33.18a.63.63 0 0 0-.08-.33c0-.42.12-.37.12-.74.18-.11 0 .51.17.49s.06-.17.06 0c-.15 0-.14.58-.27.57zm.2.81a2.63 2.63 0 0 1-.09.75c-.1 0-.18-.13-.19-.34.12-.04.12-.52.28-.42zm-.14-2c0-.41.07-.9.2-.89.05.23-.04.92-.2.86zm.18-32.48c.31-.4.5-.17.41.06-.45.45-.26-.06-.41-.09zm.17-.63h.06c-.09.06-.08.02-.07-.03zm.19.25v-.06zm0 31.57c0-.2-.05-.77 0-.76.08.14.19.6-.03.73zm-.17-32.07a.26.26 0 0 1-.05-.13l.17-.24a.29.29 0 0 0-.16.08.45.45 0 0 0 0-.26l.35-.43a.43.43 0 0 1 .14 0c-.01.27-.2.58-.48.95zm-.1-15.34c0-.15.42-.65.83-.85a3.32 3.32 0 0 1-.85.82zM123.38 62c.06 0 .12-.16.18-.1 0 .34-.32 1.27-.49 1.28.2-.56.15-.74.31-1.18zm.72-39.49a4 4 0 0 1 1.19-1.06c.1.05-.54.46-.75.65.05.1.57-.43.82-.58a4.93 4.93 0 0 1-1.26.96zm1 12.7c.11-.07.22-.16.34-.25a.51.51 0 0 0 .23.19l-.29.29a.92.92 0 0 1-.15.11 2 2 0 0 0-.16-.3zm.52.62c.06 0 .13 0 .13.08a2 2 0 0 1-.53.48c.15-.22.27-.39.4-.58zm.12-.16a1.16 1.16 0 0 1 .61-.45 4.8 4.8 0 0 1-.48.74.39.39 0 0 0-.13-.31zm-6.14-9.21c0-.1.32-.43.28-.53.25-.2.25 0 .67-.48.08.08-.55.55-.95.98zm.6 74.34c-.14-.48 0-.77.42-.82.13.29 0 .37-.07.19-.37.01.12.66-.35.61zM116 48.87c-.1.22.08 0 .18-.1a.4.4 0 0 1-.08.2.6.6 0 0 1 0-.07c-.79.81-.87 1.81-1.57 2.3.31.37.5-.29.76-.42a1.43 1.43 0 0 0-.48.94c-.27.41-.51.85-.76 1.3a.19.19 0 0 1-.29 0c.17-.62.46-.45.68-.76-.53-.33-.62.49-.77.94-.09.23-.28.48-.35.72 0 0 .12.12.15.22-.26.54-.51 1.08-.76 1.64a.21.21 0 0 0-.2-.06 2.36 2.36 0 0 1 .25-.52A5.57 5.57 0 0 1 113 54a1 1 0 0 0 .29-.77 36.62 36.62 0 0 1 1.86-3.62c.15-.1.27-.21.19-.34l.55-1 .3-.57a2.44 2.44 0 0 0 .24.29l.31-.5c-.21-.06-.18-.23-.24-.36l.23-.42a.41.41 0 0 1 .21 0c-.1.23 0 .14.17.08.06 0 .09 0 0 .21-.18.13-.57 1.25-1.11 1.87zm.76 43c-.08-.45-.16-.89-.24-1.35a1.49 1.49 0 0 1 .22 1.38zm-4.79-35.11a12 12 0 0 1 .37-1.18 1.35 1.35 0 0 0 .09-.22c.06-.15.11-.28.19-.43.25-.08-.32.86-.25 1 0 .12.05.17.16.21l-.23.53a.9.9 0 0 0 0-.21.58.58 0 0 1-.36.33zm.06-3c-.05-.2-.55-.1-.2-.53.19 0 .41.29.59.23l-.35.8a.37.37 0 0 1-.21-.13c.08.13.14-.23.14-.37zm0 3.71l-.26.67a3.56 3.56 0 0 1 .23-.67zm4.91-12.7a.42.42 0 0 0-.47-.06c.34-.44.35-.57.05-.49.11-.23.23-.45.36-.68a6.63 6.63 0 0 0 .4-.6c-.06.26-.46.92 0 .51a14.75 14.75 0 0 1 1.66-2.45.23.23 0 0 1 0 .07.86.86 0 0 0 .44.09l-.5.63c-.33.43.39-.29 0 .22l-.12.13a1 1 0 0 1-.13-.27 1.15 1.15 0 0 0-.37.88 23.27 23.27 0 0 0-1.36 2.03zm-.5-.54h-.06a1.68 1.68 0 0 1 .17-.15 1.83 1.83 0 0 0-.15.16zm3.17-1.29a1.66 1.66 0 0 0-.09.29.55.55 0 0 1-.41-.14c.07-.11.14-.23.23-.34zm-.75.92a.32.32 0 0 1-.21-.29c.11-.08.26-.28.31-.2v-.06c.04.15.14.28-.15.56zm-.34.73a.82.82 0 0 0-.4-.24l.26-.39c.07.19.31.32.1.64zm-.93 1.63l-.26.4a1.54 1.54 0 0 1 .22-.39zm0 0l.15-.11a.86.86 0 0 0 0 .18l.21-.29a1.3 1.3 0 0 0 .41-.27 3.68 3.68 0 0 0-.33.7c-.39.41-.26.11-.5.71-.38.14-.17-.39.05-.93zm1.71 51.68c.34.5-.65.6-.74.32-.3-.61.6-.44.73-.32zm-1.06-.34c-.15-.34 0-.48-.06-.72.23.12.48.19.59.62zm.38-52.25a.17.17 0 0 0 0-.11 7.55 7.55 0 0 0 1-1.66c-.41.6-.77 1.08-1.13 1.53a.21.21 0 0 1-.05-.31 6.92 6.92 0 0 0 1.24-1.3.69.69 0 0 1 .42-.08c-.58.62-1.1 1.32-1.5 1.93zm1.32-3.74c.06-.08.13-.18.21-.28l.13.07-.31.41a.38.38 0 0 0-.05-.2zm.14 17.66a5.64 5.64 0 0 1-.57 1.92 6.35 6.35 0 0 1 .55-1.92zM120 41.92l.17-.24h.09v.29c-.26.03-.26.03-.26-.05zm.57.78zm-.64-2.29a3.53 3.53 0 0 0-.42-.08c.3-.36.61-.71.91-1a.75.75 0 0 0 .33 0c-.32.36-.59.73-.86 1.08zm-14.48 31.24v-.06c0-.06.17-.28.3-.29 0-.26-.13-.34-.22-.36s0-.26.05-.4a.76.76 0 0 0 .29-.06c-.1.63.18 1.26-.42 1.17zm-.45 4.49c0-.28 0-.57.07-.86.39.54.77 2.1.07 2.14a1.6 1.6 0 0 0-.14-1.28zm.55-3.22c-.13.25-.21.6-.34.85 0-.31.07-.61.11-.91a.31.31 0 0 1 .22.06zm-.94-24.6l.08-.16v.16c0 .06-.07.02-.09 0zm0 .16a1.68 1.68 0 0 1-.28.61 1.41 1.41 0 0 1 .21-.58zm-1.95 48.9c-.22-.49-.62-1.32 0-1.32.28.75-.07 1.07.34 1.49 0 .34-.14 0-.19-.2a.51.51 0 0 0-.17.47c-.25-.1-.19-.48.04-.44zm4 15.74a7.82 7.82 0 0 1-.46-1.16c.31.76.42.52.75 1.29-.06.06-.21-.19-.28-.13zm1.07 2.05c.31.12.32.07.15-.49-.14.08-.78-1-.63-1.1.12.09.38.71.48.71-1.26-2.28-2.17-4.33-3.25-6.6a30 30 0 0 0-1.09-3 10.36 10.36 0 0 1-.82-2.88 3.71 3.71 0 0 1 .74 1.53c-.15 0-.19.12 0 .63 0-.18 0-.28.19-.25a10.2 10.2 0 0 0 .82 2.35c-.1.36-.4-1-.52-.94a17 17 0 0 0 1.17 2.69c.16.61-.38-.49-.2 0 .35.32.47 1.1.77 1.29.88 2 .93 2.16 1.77 4 .09 0 .15-.13.3.13-.08.11.53 1 .32 1a5.4 5.4 0 0 0-.57-.89c1.17 2.12 1.55 3.22.38 1.82zm-3.2-9.82c.33.8.67 1.16.56 1.57a9.76 9.76 0 0 1-.56-1.57zm2.12 3.9a3 3 0 0 1 .46 1.14c-.19-.58-.69-1.09-.46-1.15zm2 6.94c.21 0 .15-.21.23-.31a25.36 25.36 0 0 1 1.49 2.76c-.78-1.07-1.12-1.46-1.73-2.46zm1.77.65c-.27-.27-.4-.72-.27-.78.16.35.41.77.26.77zm.65 3.3c0-.16-.25-.64-.21-.81.67.87.78 1.61 1.43 2.32-.29.01-.95-1.33-1.23-1.52zm1.75 1.95c-.1-.09-.55-.43-.52-.67.42.6-.12-.53.31.08-.09.07.39.6.2.58zm.07.21c1.15 1.33 1.81 2.58 2.62 3.32.31.82-1.89-1.98-2.63-3.33zm3.33-8c-.5.39-.4 1.15-1.17 1.4-.27-.48-.54-1-.81-1.47.25-.92-.75-2.64-.69-3.73-.16 0-.34.16-.47-.05-.21-.62-.53-.58-.73-1.28a1.44 1.44 0 0 1-1-.56c-.13-.15 0-.31 0-.43-.18-.28-.44.14-.72 0-.06 0-.11-.35-.16-.39-.27-.21-.49 0-.68-.23.08.24.15.47-.09.47-.19-.2-.29-.22-.38-.22-.19-.42-.38-.85-.57-1.28a42.72 42.72 0 0 1-2-5.19c-.11-.36.06-.27-.12-.74-.55-1.56-1.5-4.13-1.46-5.78a23.12 23.12 0 0 1-.62-3.28c-.15 0-.26-.41-.33-1.08.15.3.06 0 .21 0a6.78 6.78 0 0 0 .31 1.27c0-.25-.15-1 .07-.77.2 1.23.5 1.6.74 2.68a3.07 3.07 0 0 0-.07-.92c-.44-.72-.71-2.65-1.15-3 0-.42.16-.71.3-.42a23.13 23.13 0 0 0-.22-3.09c0-.45.07-.79.3-.7-.11-.28-.26-.46-.37-.72a3.57 3.57 0 0 1 0-.38c.15.07.2.67.33.88a2.3 2.3 0 0 1 0-.53c0 .13.08.25.13.37s.1.33.14.32a.86.86 0 0 1 0-.13c-.11-.5.1-1.49-.2-1.65v-.21c0-.09.25 0 .15-.41a5.87 5.87 0 0 0-.16-1.46c.17-.08.28-.25.28-.6a2.8 2.8 0 0 1-.34-.4v-.62c0-.58.06-1.16.1-1.75 0 .29 0 .63.24.69-.3 0-.33 1.35.1 1.46a2.37 2.37 0 0 1 .32-1.62c-.36 0-.43-.32-.38-.86l.55.05a5.72 5.72 0 0 1 .25-1.82 2.26 2.26 0 0 1-.68-1.74c.47-1.18.44-2.25.92-3.79-.37-.17-.26-.85-.33-1.32s0-.09 0-.13a.38.38 0 0 0 .27.2 2.79 2.79 0 0 1 .18-1.64c.07-.3 0-.8.08-1 0-.06.35-.39.41-.53a.63.63 0 0 1 0-.43c.16-.44.29-1.18.45-1.79.12-.44.88-1.28.32-1.61a.46.46 0 0 0-.28.22 50.12 50.12 0 0 1 3-8.51 56.51 56.51 0 0 1 2.89-6.37 12.51 12.51 0 0 1 1.94-3.65 25.76 25.76 0 0 1 2-3.22l.2-.28-.2.28c-.26.39.32-.3.44-.35-.89 1.23-1.55 2.07-1.49 2.46a3 3 0 0 1-.39.41c.07-.12.2-.3.15-.33-.72 1 .43-.05-.07.77-.32 0-.64 1.08-.86.77.28-.5.51-.56.44-.78a29.69 29.69 0 0 0-2 3.44c.47-.46.89-1.66 1.39-2.32.15-.14.26-.07.42-.2.61-.74.95-1.55 1.45-1.86-1.21 2.13-1.22 1.54-2.07 3 .05-.09.14-.16.05 0a24.94 24.94 0 0 0-1.3 2.35c-.27.33-1.14 1.29-.76 1.43.27-.64.67-1.42 1-1.52.84-1.3.94-2.23 1.64-3a3.54 3.54 0 0 0-.61 1.49c.42-.64.11-.58.61-1.29 0 .07-.08.28-.05.37a9 9 0 0 1 1.3-2.09 1.47 1.47 0 0 0-.08.24l.09-.07-.84 1.45-.22.4v-.06c-.37.39-.67.69-.54 1.09l-.09.18a.11.11 0 0 0-.18.11h.06a2.41 2.41 0 0 0-.72 1.27c.14-.2.3-.08.46 0 .23-.32 0-.43.08-.66.21-.56.46-.45.7-.67a17.32 17.32 0 0 1-1 1.78 16.49 16.49 0 0 0 1.77-3.08c.18-.24.36-.65.55-.61a5.44 5.44 0 0 1 0 .65c-.21.36-.4.73-.59 1.08l-.39.76c0-.09 0-.21-.14-.07a5.56 5.56 0 0 1-.57 1.42.33.33 0 0 1-.14-.05c.05-.15.2-.35.08-.41-.11.88-.62.58-1 1.51.2.16.37.07.53-.08l-.13.25c-.42.44-.69 1.09-1.09 1.47.28.37.42-.29.61-.59a1.69 1.69 0 0 0-.09.24 2.19 2.19 0 0 1 .11-.22c-.37.65-.73 1.37-1.09 2.13a.85.85 0 0 1-.65-.76c-.33.89-1.19 2.13-1.14 2.82.08-.18.32-.14.25.11-.12.79-.58-.2-.69.59.33.35.58.34.58 1.11a2.31 2.31 0 0 0-.19 1c-.06.22-.11.44-.16.65a.28.28 0 0 0-.23-.14c0 .22-.09.46-.12.68-.17.64-.35 1.33-.53 2.07-.45.6-.29.86-.39 1.65a.8.8 0 0 1 0 .11c-.41 0-.09-.61-.52-.59l-.12.39c-.07 0-.2.11-.06.19.35-.46.7.31.5.78-.44 0-.29-.45-.73-.43-.14.87.27.43.57 1a.64.64 0 0 1 .09-.17c-.19.82-.39 1.63-.59 2.42a1.31 1.31 0 0 0-.47-.65c-.23.68.25.73.36 1.11l-.17.65c-.16.21-.37.39-.33.06 0-.55.35-.33.45-.71-.73-.39-.81 1.75-.2 1.6v-.09a1.38 1.38 0 0 1 0 .32c-.08.4-.13.84-.2 1.25a.37.37 0 0 0 0-.1c-.31.46.1.67-.47.32.3.94-.87 2.31.13 2.66 0 .17 0 .35-.05.51-.49.36-.53 1.94-.53 2.85a2.71 2.71 0 0 0 .28 1.63v2.8A89.6 89.6 0 0 0 108.3 92c0-.14 0-.25.06-.21a39.24 39.24 0 0 0 2.08 9v.93c.21-.07 0-.28.22-.45a17.23 17.23 0 0 0 1.58 4.56l-.14.06a15.18 15.18 0 0 1 1.54 3.25c-.09-.19 0-.21.06-.22.43.82.8 1.5.69 1.65a3.15 3.15 0 0 1 .52 1.34c.37.6.21-.12.44.19.4.83.85 1.69 1.35 2.57-.12.02-.26-.08-.48-.41zm.05-69.61a.23.23 0 0 1-.07.16zm-.19.1a.3.3 0 0 0-.19 0 3 3 0 0 1 .35-.43 1.19 1.19 0 0 0 0 .14zm-.31.55a3.25 3.25 0 0 1-.4.56 2.1 2.1 0 0 1-.27.89.53.53 0 0 0-.45 0c.12-.16.23-.31.32-.46a1.21 1.21 0 0 0 .35-.59l.3-.55a.68.68 0 0 1 .15.12zm-4.47 13.41l.17-.48a.91.91 0 0 1-.17.48zm0 .39c-.11.37-.22.74-.34 1.1a6.26 6.26 0 0 0-.56 1.8c-.07.23-.14.46-.21.7a11.72 11.72 0 0 1 1-3.69.25.25 0 0 1 .12.09zm-2 7.07c-.14.6-.28 1.16-.35 1.59-.17-1.22.68-3.41 1-5.1a13.4 13.4 0 0 1-.45 2.52 1.51 1.51 0 0 0-.15.99zm-1.43 7.42c.14 0 0 .82 0 1-.22.09.03-.71.05-1zm-.38-1.86c0 .37-.07.76-.11 1.14a2.06 2.06 0 0 1 .16-1.13zm-.25 2.52c0 .24 0 .47-.06.7a.9.9 0 0 1 .12-.69zM107.2 76v1.09a1.34 1.34 0 0 1 0-.7.68.68 0 0 1 0-.39zm9.63 38.58a44.34 44.34 0 0 1-2.09-4c-.85-1.79-1.6-3.58-2.33-5 0 0 .14 0 .07-.22-.12.2-.32-.29-.5-.58.07-.41-.59-1.55-.63-2.42a8.72 8.72 0 0 1-.83-2.7c-.13-.16-.23-.11-.35-.46.15-.15-.27-.83-.2-1.23a8.39 8.39 0 0 1-.72-2.19c.26-.21-.15-1.22-.31-2.11-.16-.37-.08.24-.19-.14a62 62 0 0 1-1.14-13.64c0 .14 0 .34.05.35 0-.54-.14-.34-.1-.87.14 0 .11-.3.2 0a15.5 15.5 0 0 1 .15-2.79c-.15-.2-.14.26-.22.33 0-.41-.07-.38 0-.87.1 0 0 .48.19.36.11-.81-.14-.6 0-1.41.23.13.13-.87.32-1.37-.16-.36-.14-.43-.26-.37a2 2 0 0 0 .06-1h.15c0-.34 0-1.74.27-1.89a16.86 16.86 0 0 1-.33 2.42c.21 0 .29-.87.4-1.79a8.35 8.35 0 0 1 .39-2l.06.11c-.34 2.21-.61 4.15-.79 6.19a.2.2 0 0 1-.1 0 10.52 10.52 0 0 1-.14 1.78l.12.06v.43a.75.75 0 0 0-.13.31h.1c0 .54 0 1.08-.06 1.65.09.07.13-.26.15 0s.06 1 0 1c-.13-.2.13-.73-.11-.69a26.36 26.36 0 0 0 .1 3c0-.35.11-1.13.24-.53a29 29 0 0 0 .15 4.32V87c0 .68-.19 1.4.21 1.71.16 1.11.33 2.18.5 3.12a69.57 69.57 0 0 0 3.1 12.09h-.09c.8 1.47 1.06 2.93 1.85 4 .16.46.33.92.22 1.07.16.27.41 1 .51.94-.36-.7-.47-1.1-.31-1.22l2.11 4.32c.22.31.44.66.67 1-.24.23-.29.47-.42.59zm0-22.07l-.1-.49c.22 0 .79-.39.81.38-.38-.03-.54 0-.67.15zm.76 3.14c-.1-.35-.2-.7-.29-1.06.35-.32.35.59.47.83s.5.46.44 1.19c-.32-.24-.29-.68-.58-.92zm.4 19.06zm39.86 38.74l-1.37.39-5.83-1.69s5.58 2.09 4.31 2c-.63 0-2-.21-3.22-.37-.11-.18-.68-.42-.19-.38a14.9 14.9 0 0 1-3.79-1.83c-.23-.1-.21 0-.27 0-.21-.11-.07-.14-.33-.26a9.76 9.76 0 0 1 2.86 1.35c.54.16 1.31.5 1.81.63 0-.24.1-.34-1.15-.91 0 .1.61.31.49.38.08.17-.42-.08-.48 0-.39-.2-1.77-.87-1.06-.67-.49-.32-.43-.09-.87-.2a1.57 1.57 0 0 0-.92-.49 3.75 3.75 0 0 1-.47-.44 51.72 51.72 0 0 1-5.19-2.75s.15.13.12.17c-.68-.5-1.12-.76-2.48-1.58 0-.07.06-.12.27 0a47.09 47.09 0 0 1-4.26-3c0 .35-1.21-.88-1.88-1-.17-.27-.91-.78-.83-.93-.75-.55.24.31-.34 0-.65-.52-1.19-1.27-1.84-1.68h-.27c-.41-.34-.54-.63-1-1 0 0 .06.18.09.2-.22-.21-.62-.64-.89-.88-.44-.38-1.06-.66-1.56-1.12s-.61-.85-1-1.29a16.67 16.67 0 0 1-2.14-2c-.44-.44-.61-.43-1-.81-1.31-1.53-2.6-2.92-4-4.77 0-.23-.42-1.22.26-.39-.8-.93-2.24-3-1.12-1.94.3.28.61.82.47.67a34.07 34.07 0 0 1 3.13 3.8 72.52 72.52 0 0 0 9.94 9.09 28.87 28.87 0 0 0 3.65 2.55l.08.08c3 2 5.94 4.07 9.43 6 .25.07.11 0 .08-.12.4.2.55.34.46.41.73.22 3 1.57 2.92 1.17a3.71 3.71 0 0 0 1.22.75c-.13-.23 0-.1.15-.25-.83-.33-.85-.25-1.06-.61.29.13.6.24.91.36a8.84 8.84 0 0 0 2.33 1c.14.13.32.28.17.23a1.58 1.58 0 0 0 .73.1c1.15.48 2.17 1.14 3.18 1.49l1.71.59h.05c.5.15.87.29 1.15.4zm-34.23-41.67c-.12-.08-.89-1.31-.68-1.29a9.49 9.49 0 0 0 1 1.5c0 .19-.49-.63-.29-.18zm.38-15.72a.7.7 0 0 0 0-.14c.11.47.22.27.34.55-.09.16-.19-.2-.34-.41zm1.08 2.75a6.16 6.16 0 0 0 .63 1.27c-.11.35-.59-.98-.59-1.27zm.9 16.86c.29.55-.92-1-.63-.94a5.72 5.72 0 0 0 .65.95zm1.51-13.09a6.69 6.69 0 0 1-.89-1.8h.15c.25.68.63 1.22.78 1.81zm-.22-1.51c-.14-.45-.25-.23-.39-.67.09 0 .14-.08.13-.2.19.39.41.8.3.88zm.59 2.34c.1-.07.21 0 .34.21-.1.31.65 1.61 1.13 2.18-.13.16-.16.06-.21.24-.57-1.4-1.3-2.22-1.68-3.44.2.36.36.22.55.61-.09.04-.23-.21-.1.21zm1-4.3a9.91 9.91 0 0 0 .81 1.72c-.11.08-.15.25-.11.5a14.37 14.37 0 0 1-1.06-2.72c.16.45.27.39.39.51zm-.09-1.11l.21.54c-.16.12-.44-.64-.21-.54zm1.28 9.22c-.1 0 0 .19-.11.21-.27-.5-.58-1.06-.4-1.15.23.36.23.64.51.89zm57 30.35c-1.21-.7-1.16 1.58-3.16.25v-1c1 .75 1.22-.71 2.58-.25-.3.76.9.15.59.95zm4 22.46h.08a2.13 2.13 0 0 0 .27.17 1 1 0 0 0-.3-.2zm1.39-3.06a19.46 19.46 0 0 0 0-2.41c1.3.53.56 1.35.05 2.36zm0-8.48c.39-.4-.4-.77-.62-.76l.18-.68c.08.06 0 .61.18-.53a24.84 24.84 0 0 1 3.54.28c.9 0 1.79-.47 2.81-.5a1.92 1.92 0 0 1 .44.27 5.7 5.7 0 0 1-1.92.31c-.05.26-1 .38-2 .47a7.23 7.23 0 0 0-2.55 1.09zm.41-3.27c.87.26 1 .16 1.7.4-.13 0-.14.06 0 .19-.53 0-1.55.21-1.77-.06-.34.09 0 .22 0 .36-.62.12-.29-.39-.61-.47-.26.39.32-.47-.35-.49.28-.35.24-1 .72-1.17.29 0 .71 0 .75.25s-.67.15-.38.94zm8.06 5.5c0 .06-3 .92-4.07 1.19h-.59l.14-.28a34.93 34.93 0 0 1 4.61-.96zm-4.75 3.16c-.7-.44-1-.07-1.34.11a6.41 6.41 0 0 1 .8-1.17 3 3 0 0 1 .58.21.35.35 0 0 1 .24 0c-.32.06.33 1.06-.22.8zm3.39-.89a1.32 1.32 0 0 1-1.06 0c-.29.08.66.23.06.19a11.68 11.68 0 0 1-1.24-.36c-.56-.06-1-.08-1.4-.11 0 0 0-.09-.11-.13l.18-.23a19.67 19.67 0 0 1 3.57.6.13.13 0 0 1 .11.07.29.29 0 0 0-.05-.08zm2.9 0c-.43-.18 1.3 0 .87-.22.28 0 .22.08.28.13a5.42 5.42 0 0 1-1.09.1zm19.31-3.55h-.08a1 1 0 0 1 .37-.25l.19-.06a1.13 1.13 0 0 1-.43.27zm.27-2.72l.19-.08c-.9.6-1.58 1.13-2.39 1.67-.42.16-.9.36-1.48.64 0-.12-.15-.19-.45-.09-.89.5-1.79.84-1.92.57-2.27 1-3.81 1.21-5.27 1.88a6.6 6.6 0 0 1-1.36.3 2.55 2.55 0 0 0 .53 0 29.27 29.27 0 0 1-4.74.75c-2.23.2-4.5.17-6.3.21a16.16 16.16 0 0 0-2.82-.32c0-.06.08-.13.13-.21 1.59-.13 3.61-.31 4.39-.39a14.25 14.25 0 0 0 3.07-.61v.06l.07-.08a1.83 1.83 0 0 0 .32-.17c-.08.44.72 0 1.13-.08 0 .49-.82.34-1.43.53.55.5 1.49-.26 2.6-.51-.13-.12-.43-.06-.55-.2 1.44-.21 1.21-.76 1.65-1.16h.45a2.49 2.49 0 0 1-.3.53 3.63 3.63 0 0 1-.45 0c0 .09.14.11.38.09a1.24 1.24 0 0 0-.27.72c.39-.22.67-.46.62-.76a2 2 0 0 0 .65-.18l-.6.08a5.32 5.32 0 0 1 2.25-.32.5.5 0 0 0 .22-.59c.68-.17 2 0 2.91-.47.3-.17.78-.37.71-.53.77-.2.06.36.64.39l-.61.23c.25.11 1.11-.33 1.1-.64-.57.08-.69 0 0-.16.06 0 0 .1 0 .16a29.12 29.12 0 0 0 5.34-1.46 13.25 13.25 0 0 1-2.39 1.07c.89-.19 2.26-.49 2.4-.56.11.16 0 .31 0 .46a2.4 2.4 0 0 0 .74-.4c-.07-.21-.36-.13-.42-.35.86-.13 2.16-.78 2.22-1.27.46 0 .07.4-.08.67h-.05a2.16 2.16 0 0 0-.78.54zm-17.77 4l.16-.24a.35.35 0 0 1 .13.06c.05.01-.09.06-.24.11zm3.9-4.21c0-.34 0-.7.22-.77s0-.11.22-.2l1.21-.72zm12.91-.07c.17-.26.87-.6 1-.34-.07.19-.79.54-.94.27zm1.69 1.41l1.12-.61.48-.16-.78.45zm1.67-1.63h.37c-.29.15-.49.27-.43.34-.29 0-.6 0 .11-.2.04-.13.03-.17.01-.21zm.18 2.64c.17-.22-.2-.1-.74.1l.61-.3c.19 0 .9-.36.87-.23-.35.1-.08.17-.68.36zm.17-1.82l.55-.37c.45-.23.79-.44 1.11-.61.07 0 .2 0 .47-.21l.22-.08a14.26 14.26 0 0 1-2.29 1.23zm.33-.58c0-.09.14-.21.37-.34h.11l.15-.07zm.68-.47a.33.33 0 0 0 .08-.07l.16-.07zm.71-.55c.23-.11.43-.17.43-.11l-.26.14s-.03-.11-.11-.09zm.86-.49a7.85 7.85 0 0 1-.87.35c.46-.43.62-1.11 1-1.26.5-.47.54.24.61.6-.18.17-.33.33-.55.52s-.41-.02-.14-.27zm.76-.2c0 .08.09.09.18-.06s.34.11.68-.14h.17a15 15 0 0 1-1.44.55zm.91.32l-.34.09a7.15 7.15 0 0 1 .85-.52.62.62 0 0 0 .24 0c-.14.05-.41.21-.69.36zm.88-.57h.1zm.05-.3l-.18.09a.27.27 0 0 1 .09-.14l-.23.18c-.09-.09-.09-.21.18-.44s.1.11.18.25zm.14.47l.66-.39.09.06zm.78-.83a1 1 0 0 1-.28-.31c.35-.11.47 0 .54.14zm.34.22h.09zm5.65-4l-.08.06.09-.08zm.48-.07l-.12-.14c.23-.2.59-.35.75-.53l.25-.15c-.09.1-.27.27-.25.28.38-.17.48-.49.93-.9h.19a5.46 5.46 0 0 1-1.7 1.45zm0-1c-.05-.15.33-.4.55-.61s.41.21.6.34l-.38.27c-.12-.16-.12-.28-.72.01zm.29-6.51c-.84.82-1.51 1.68-2.26 2.38-.14-.15-.32-.12-.54 0a12.49 12.49 0 0 1-3.33 2.38c.08.28.69 0 .08.39-.33 0-.76.25-1.09.21-1.1.92-2.41 1.46-2.8 2.1a3.76 3.76 0 0 0-1.82 1.17c-.12-.61-1 .29-1.44.3.19.17.58-.08.78.1-.69.16-.8.49-1.53.89-.53-.25.71-.46.49-.69s-.79.5-1.6.76c-.09-.11-.2-.21-.47 0 .54.14 0 .12-.46.38-.7.44-1.25.74-1.68.61a.52.52 0 0 0 .41.33c-.59.44-.69.07-1.06.12-1.09.63-2.18 1.09-2.34 1.48.09.11.45.1.16.32-.34 0-.49-.28-.82-.3-.49.22-.64.82-1.09.46.72-.47 1.45-.5 1.53-.92a12.54 12.54 0 0 0-1.38.32c-.83.2-.24.17-.86.49-.62-.18.16-.64 1.09-1s2-.74 2-.58c.52-.5.82-.32 1.48-.56-.4-.33.6-.43.64-.45.35-.21.27-.53.69-.75.13.53 1.06-.29 1.34 0 .29-.19.92-.36.55-.57-.57.23-.55.63-.91.36a1.77 1.77 0 0 1 .78-.56c.33-.12 1.86-.07 1.64-.66-.1.05-.25 0-.06-.1.4.16.67-1 1.22-.61 0 .21-.62.41-.53.61.82-.45 1.2-1.11 1.88-1 .13-.08.07-.44.12-.5s1.06-.63 1.11-.74-.17-.18-.14-.2c.29-.22.78-.24 1-.56-.06-.13-.23-.25-.06-.39.5 0 .22.31.21.58.73-.37.47.26 1.32-.2.31-.23 0-.4.47-.65.23.08.55-.15.77-.28a13.48 13.48 0 0 0 3-2.41.82.82 0 0 0 .83-.24 44.75 44.75 0 0 0 3.95-3.39c.84.38-.73 1.09-1.23 1.56zm-21.59 9c.38-.2.59-.52 1-.47.41.28-.94.73-.96.43zm2.81-1.08c.06.39.64-.17.63.35-.49.49-.89-.17-.59-.39zm.75.56c1-.19-.05 1.11-.66.74.42-.28.15-.57.7-.78zm20.2-10.96c.31.19 0 .56.28.76.13-.09.27-.28.37-.21-.77.71-1.46.31-.65-.55zm1.77-1c-.39.4-.6 1.25-1.14 1.06.28-.37.36-.88.63-1.23s.55-.31.82-.56 0-.18 0-.22.21-.06.22-.08c.68-.71 1.07-1.07 1.49-1a17.63 17.63 0 0 1-2.03 2.03zm2.45 5.81a5 5 0 0 0 .59-.63v-.06a2.85 2.85 0 0 1 .54-.43c0-.19-.37.22-.44.16l-.2.21c0-.19.61-.55.7-.76s.28.06.46-.15c.13 0 .15.06.14.12a13.09 13.09 0 0 1-1.82 1.51zm2.5-2.44a4.2 4.2 0 0 1-.36.32l-.07.11a.85.85 0 0 1 .42-.46zm-.84-14.6a.77.77 0 0 1-.32.07 5.08 5.08 0 0 1 .63-.84 4.86 4.86 0 0 1 .64-1.3 5.19 5.19 0 0 1-.97 2.04zm1.69-2.76a.88.88 0 0 0-.27.54l-.08.11c-.1.08-.22 0-.33 0 .32-.47.68-.91 1-1.31-.16.21-.25.42-.34.65zm2-18.19a5.68 5.68 0 0 0 .2-1c.21-.16-.25 1.55-.2.97zm.23-5.66a14.72 14.72 0 0 1-.24 3.22c.1 0 .09.13.14.19-.16.59-.26 1.58-.36 2 .12.09.17-.51.29-.53a29 29 0 0 1-1.09 5.37c.09.5.26-.91.45-.94-.26 1.44-1.17 3-1.31 4.25-.1.33-.17.1-.28.37a10.87 10.87 0 0 1-1.2 3.33c.45.5-1.16 2.9-1.47 4.27a20 20 0 0 0-1.6 3 2.64 2.64 0 0 1-.42.43c-.31.49 0 .06 0 .21-.21.37-.33.33-.55.7 0 0 .11-.25.2-.4-.6.76-1.28 2-1.91 2.86a8.36 8.36 0 0 0 1.51-2.23c.1-.13.13 0 .24-.21a2.24 2.24 0 0 1-.76 1.3c-.25.46-.37.83-.59 1.25s-.37.1-.7.6c.13.25-.28.82-.73 1.41a5.36 5.36 0 0 0-1 1.48c-.66.69-1.78 2.11-2.65 3.15.39-.26.31 0 0 .37.71-.67.34-.67 1.23-1.34a1.66 1.66 0 0 1-.48.8c.47-.66 0-.14-.48.39a.88.88 0 0 1 .48-.18 42.76 42.76 0 0 1 3.35-3.58c-.35.48-.86 1.16-1.12 1.47-.09-.05 0-.2.19-.46-.05-.07-.36.4-.52.56.42-.28-.12.34 0 .43l.59-.72c.16.2-1 1.23-1.17 1.65.16.06.27-.43.75-.79 0 .33-.59.8-.89 1.3.44-.12 1.16-1.2 1.72-1.8.35-.39.37-.18.72-.81a7.31 7.31 0 0 0 1.32-1.33c-.08 0-.21.18-.3.16.66-.91 1-1 1.34-1.13-.06.23-.35.41-.52.79.76-.94.41-.28 1-.79a12.13 12.13 0 0 1 1.28-1.7c-.44.65-1 1.39-1.52 2.15-.82 1.11-1.74 2.19-2.65 3.2.05-.08.14-.17.18-.24-.33.18-.65.79-1.42 1.51a3.38 3.38 0 0 0 .33-.29 1.07 1.07 0 0 1-.14.15c-.37.38-.75.55-1.16.93a16.5 16.5 0 0 1-2.37 2.25 1.27 1.27 0 0 0 .11-.16c.24-.22.51-.51.7-.68-.18.14-.37.27-.54.42 0-.18-.27 0-.75.4 0 0-.6.61-1.36 1.3s-2 1.77-2.62 2.23c-.25.18-.17.3-.35.43s-.73.4-1.09.71-.48.53-.65.64c-.35.25-.8.18-1.48.79a1.51 1.51 0 0 0-.31.5c-.25.15-.68.09-1 .24-.09 0-.2.29-.39.4-.41.25-.93.34-1.38.61a25.19 25.19 0 0 1-2.69 1.6c-.19.08-.32-.18-.62.07.06.2.27.09.36.22-.27.17-.42.07-.72.26-.1-.11-.07-.2 0-.29-.25-.24-.52.28-.2.38a2.36 2.36 0 0 0-1 .42c-.13.07-1 .25-1.28.38s-.56.42-.94.58-.69.28-1.05.43a1.15 1.15 0 0 1 .37-.31l-.81.48-.23.1a2.82 2.82 0 0 1 .4-.21c-.66-.13-2.45.91-3.64 1-.19.11-.14.3-.17.47 0 0-.06 0-.11.08l-.21.21c-.28 0 0-.16-.13-.34a22 22 0 0 1-2.14.52 5.61 5.61 0 0 0-1.9.5c-.44-.31-1.16.22-2.06.32h-.33a.34.34 0 0 0-.14 0 1.63 1.63 0 0 0-.38.11l-.46.07s-.07 0-.07-.08a1.61 1.61 0 0 0-.57.2c-.35.06-.69.12-1.06.2a.38.38 0 0 1 0 .14c-.34.28-.27.48-.82.76l-.88.1h-.07c-.63.22-1.94.25-2.35.51a.25.25 0 0 0 0 .21c-.27 0 0-.49.56-.4-.48-.57-.65.25-1.12.34-.82-.08-.3-.4-.68-.67-.77.11.31.5-.51.66-.15-.3-1-.06-.85-.57a2.15 2.15 0 0 1-.82.11 2.47 2.47 0 0 0-.07-2.14c.9.07 1.72.06 1.49-1-.86.19-1.19-.14-1-1-.71-.2-.65.35-1.25.25.57-.7-1.74-1.67-2.17-2.21l-.27.11-.17-.25.17-.15a3.21 3.21 0 0 1-.41-.2l-.24-.38c.14-.07.21.16.15-.32a1.47 1.47 0 0 1-.34 0c-.24-.44-.38-.81-.32-.95a.93.93 0 0 0-.54 0v-.26h-1.5c-.21 0 .07-1.59-.75-1.61-.6-.1.14 1.2-.75.82-.92-1.71-4.17-.62-4.1 1.42-1.1-.33-1.86-1-2.71-1.3a19.11 19.11 0 0 0-3.78-1c-.07.23 1 .19.57.23.43.19-.78.37-.27.54 1 .44 2.27.81 3.41 1.18 0 .1-.22.13-.45.14s.12-.2-.43-.19c0 .53-2.38-.16-3.54-.39-.89.12-2.05.55-2.53.52-.14-.06-1-.24-1.19-.29-1.41-.54-1.6-1.14-1.44-1.1 0-.06-.41-.19-.43-.13a.82.82 0 0 1-.12-.18h.37c0-.08-.21-.13-.4-.17 0-.07 0-.15.19-.2a11.46 11.46 0 0 1-2.19-.34c-.17-.21.59 1.7.23 1.52s-.28-1.75-.32-1.7l-1.12-.44c.13 0 .24 1.71.05 1.62s-.25-1.75-.29-1.72c-.21-.08-.54.85-.81.72-.39-.34-.41-1.68-1.5-2.1.15-.23.47-.12.4-.43-.72-.49-1.48-.06-2.42-.41-.22-.08-.68-.92-.91-1-.8-.32-1.71.52-1.83 0-.39-.08-.31-.88-.18-1l-.49-.18a1.19 1.19 0 0 1-.48-.6c-.45-.09-.53 0-.37.27l-.18-.07a27.08 27.08 0 0 1-4.64-2.59c.23 0 .3-.16.7.08-.2-.34.19-.22.33-.39a5.47 5.47 0 0 1-1.09-.53c0 .08.17.33-.21 0a.91.91 0 0 0 .27.36c-.21-.11-.35-.19-.54-.31a.33.33 0 0 0 .16-.09 2.42 2.42 0 0 1-.48-.19v-.17c-.25-.17-.39-.17-.47-.11l-.1-.05a.45.45 0 0 1 0 .09c-.39-.38-.25-.16-.55-.28s0-.31.14-.14a8.25 8.25 0 0 1-1.68-1.43c.39.48-1.05-.71-.37-.06-1.63-1.18-2.29-1.82-3.58-2.69l.07.55c-.46-.36-.92-.71-1.49-1.09-.22-.25.19.08 0-.2-.58-.3-1.43-1.19-1.76-1.05a19.84 19.84 0 0 1-1.4-1.53c0-.09.15 0 .28.16-.13-.39-.51-.37-.67-.44a17 17 0 0 1-1.78-2.19c-.07.21-.38-.18-.53-.18s-.24-.34-.2-.4c.21 0 .19.34.43.44a14.9 14.9 0 0 1-2.25-3.31c-.28-.33-.15-.1-.25 0-.41-.59-.26-.75-.76-1.41 0 .27.36.76.32 1-.39-.51-.61-.49-1-1.13-.14-.26.26.14-.16-.43.13-.08.37.26.48.1-.22-.19-.62-.55-.56-.22-.14-.26-.26-.39-.33-.33a8.34 8.34 0 0 0-.45-1.09c.2 0 .22.41.39.64.07-.3-.52-1.16-.76-1.75a3.67 3.67 0 0 0 .29 1 2.18 2.18 0 0 1-.57-.86c0 .08 0 .16-.06.18-.41-.79-.62-1.13-1-2l-.34-.33c-.14-.41-.11-.5-.41-.78 0-.14-.08-.25 0-.3s.3.57.43.61a3.21 3.21 0 0 0-.51-.9c.15 0-.28-.6-.32-1-.93-1.57-1.4-4.13-2.27-5.81a6.16 6.16 0 0 0-.22-1c-.08-.1-.16-.13-.24-.1-.08-.21-.15-.52-.23-.54 0-.17-.06-.68.12-.32.08-.09-.28-.66-.24-.25-.16 0-.29-.68-.42-1.1.12-.15.2.44.31.54a11 11 0 0 1-.47-2.4c-.19-.43.09.55 0 .57a3.89 3.89 0 0 1-.86-1.63c0 .62.49 1.12.69 1.8-.25.14.35 1.67.66 2.53a1.79 1.79 0 0 0 0 .28c-.08.07-.13-.09-.19-.26.05.62.85 1.67.58 2.1-.24-.33-.07-.78-.42-.79-.06-.23-.07-.75-.23-.85.19 1.93 1.56 4.37 1.92 5.69-.37-.7-.71-1.32-1-1.84-.13 0 .28.61 0 .44s-.37-1.06-.64-1.2c-.11-.42.2.31.25.08-.15-.08-.36-.95-.16-.56-.36-.8-1.49-3.1-1.47-4-.2-.44-.07.32-.16.33 0-.6-.25-1.44-.37-2.18-.11-.31 0 .19-.19-.12s-.07-.46 0-.45c-.16-.08-.39-.86-.44-.55 0-.49-.05-1-.13-1.61-.06.06 0 .27-.09.31 0-1.08-.35-2.1-.37-3.06 0 0 0 .15-.09.15a42.5 42.5 0 0 1-.55-6.73c-.1.12-.17.35-.13.87-.34-.54-.11-2-.13-3 0-.21-.14-.39-.14-.6a.31.31 0 0 1 .16-.28 8.34 8.34 0 0 0-.06-1.93 11.17 11.17 0 0 1-.13 1.61c-.21-.42-.1-1.57-.36-1.82a13.49 13.49 0 0 1 0 1.78c.13.11.19 0 .18-.42.05 0 0 .3.09.31a6.93 6.93 0 0 0-.09 3.12 8.63 8.63 0 0 1-.06 3.38 31.22 31.22 0 0 1 .56 4c.09 0 0-.4.14-.46.15.82 0 .61-.1.75a3.91 3.91 0 0 1 .25 1.18c.31.16.25 1.15.57 1.59a2 2 0 0 0 0 .3c-.14.08-.21-.36-.32-.57a19.39 19.39 0 0 0 1.45 4.44c0 .29-.05.35 0 .61.34.16.3 1.16.42.84a6.54 6.54 0 0 1 .17 1.48c.24.78 0-.54.25.25.1 0-.16-.51-.2-.72a6.31 6.31 0 0 1 1 2.38 5.66 5.66 0 0 1-.61-1.08c-.15 0 .09.57-.15.5.52 1.12 0 .7.39 1.3a1.49 1.49 0 0 1-.31-.54 7.33 7.33 0 0 0 .65 1.86c-.33 0-.17-.54-.57-1.25v.32c-.75-1.43-1.31-2.34-1.9-3.75.24-.46-.47-.92-.78-1.88.11.46.34 1.22.05 1.08a3.56 3.56 0 0 0-.31-1.37.68.68 0 0 1-.06-.27 2.57 2.57 0 0 1-.14-.47c.13.07.11.24.14.47a1.88 1.88 0 0 0 .08.24c0-.09.05-.15.13-.15-.23-.89-.33-.74-.54-.84a15.34 15.34 0 0 0-.58-2.7c-.07-.45.14.13.2 0-.15-.34-.24-.94-.44-.89-.13-.46 0-.44-.11-.9a1 1 0 0 1 .23.43c0-.49-.67-1.68-.35-2.1a10.67 10.67 0 0 1-.51-4.09c-.09.3-.11.3-.26 0a3.81 3.81 0 0 0-.27-2.14c.08-.52.09-1.23.17-1.82.11.13 0 .95.21.78a1.88 1.88 0 0 1 0-1.22c-.11-.29-.14-.54-.31-.33l.14-1.52c.18.27 0 .85.24.79-.1 1.64.39 3.07.11 4.1a3.72 3.72 0 0 1 .11 1.67c.34.27.33.86.32 1.66.38.06.4-.26.91-.16a3.43 3.43 0 0 1 .17-.9 5.25 5.25 0 0 1-.31-2.08c-.33.67-.34-1.82-.1-1.35-.11-.52-.32-.75-.44-1.22s.18-.23.2-.58c-.21-.08-.16-.85-.13-1.5.09 0 .09.13.09.3a32.83 32.83 0 0 0 .12-3.73c0-.18.1-.11.16-.13a18.29 18.29 0 0 1 .42-5.22c-.05.07-.11.14-.18.11a7.56 7.56 0 0 0 .26-1.79 25.31 25.31 0 0 0-.83 3.35c-.17-.6.27-1.73.08-2.3.17.75.27-.51.19-.88.28-.52.26-1.13.56-1.72-.06-.23-.29.32-.2-.06-.24.36-.41 2.33-.81 2.44-.15.6.07 0 .16.2-.12.5-.31.36-.44.67.27-.74.24-1.83.55-2.19a14.87 14.87 0 0 1 1.47-5.09c-.21.11 0-.27-.1-.36.55-1.13 1-3 1.6-3.26.13-.29-.14-.14-.18-.24-.93 1.54-1.11 3-1.85 4.15-.12-.1.29-1 0-.66a57.94 57.94 0 0 1 2.52-6c-.08-.31-.29.58-.39.48 1-1.93 2-4.43 3.15-5.54-.07-.21-.32.39-.41.29.71-.91.65-1.86 1.58-2.61a2.59 2.59 0 0 0 .09-.49 19.06 19.06 0 0 0 1.23-1.57c-.07 0-.21.2-.32.34 0 0 .08-.17.14-.28-.55.23.06-.66.95-1.68s2-2.13 2.4-2.49c.13-.18 0 0-.08-.07 1.51-1.73 3.09-3.18 4.87-4.91.17-.12.07.06 0 .18.35-.34 1.47-1.82 2.31-2-.08 0-.26.11-.34.08.44-.31.56-.15 1-.49 0-.12-.17 0-.25-.06.73-.82 1.7-1.14 2.07-1.63a6 6 0 0 0 .69-.36c.3 0-.29.31-.09.37a2.45 2.45 0 0 1 .59-.48c-.13 0-.16-.06-.34.06 0-.12.39-.19.31-.36.25-.07.59-.29.76-.27.17-.13 0-.17 0-.25a24.77 24.77 0 0 1 4.61-2.62 7.49 7.49 0 0 1 2.77-1.72c-.5 0 .88-.55 1-.74a2.33 2.33 0 0 0 .31-.09c.28.07-.35.25-.17.34a3.36 3.36 0 0 0 1-.82c-.37.35-.31.1-1 .45a6.44 6.44 0 0 1 1.59-.69c.07.08-.1.17-.31.27a20.6 20.6 0 0 0 3.08-1.38c.64-.11-.17.22.42.21a7.8 7.8 0 0 0-3 1.37c.64-.31.92-.32 1.08-.24a8.81 8.81 0 0 0 1.7-.77 8.82 8.82 0 0 1 .93-.19c1.47-.64 3.26-.92 4.24-1.52-.48.11-.34.26-.74.25a3.3 3.3 0 0 1 1.13-.39s0 .08-.12.13c1-.33 3.23-.5 4.1-1 .92 0 2.71-.62 3.42-.41a2.61 2.61 0 0 1 1-.41c0 .12.52.17.62-.08.89 0 1.88-.12 2.88-.2l.11 1c.58 0 .92-.08 1.72-.2.28.1-.11.1.17.18-.58 0-1.35.09-1.88.1v.24a2.77 2.77 0 0 0 .45-.21 20.36 20.36 0 0 0 2 0c0-.06-.29 0-.47 0 0 0 .19 0 .31-.06-.53-.26.58-.32 2-.26s3 .25 3.53.31c.22 0 0 0 0-.1 2.35.1 4.51.41 7 .72.21 0 0 .08-.17.06.48.06 2.38 0 3.1.51 0-.08-.26-.13-.28-.2.53.13.47.31 1 .44.08-.08-.08-.13-.13-.2 1.13.06 2 .56 2.63.55.28.09.36.18.74.29.17.21-.44 0-.36.13a3.18 3.18 0 0 1 .76.16c-.12-.07 0-.15-.26-.22.07-.08.39.17.47 0 .22.14.62.26.71.4s.15-.08.2-.13a28.08 28.08 0 0 1 5 1.78 8.4 8.4 0 0 1 3.12 1c-.34-.34 1 .32 1.24.3a2.71 2.71 0 0 0 .27.16c.13.24-.43-.1-.39.07a4 4 0 0 0 1.27.23c-.52-.06-.27-.16-1-.46a7.27 7.27 0 0 1 1.56.74c0 .13-.35 0-.63-.15a32.72 32.72 0 0 0 3.27 1.49c.51.39-.27 0 .12.41a8.62 8.62 0 0 0-3-1.33c.66.27.84.47.89.63a9.49 9.49 0 0 0 1.7.77 7.53 7.53 0 0 1 .75.55c1.44.67 2.83 1.79 3.93 2.13-.39-.27-.43-.09-.68-.37a3.3 3.3 0 0 1 1.07.63c0 .05-.07 0-.18 0a40.56 40.56 0 0 0 3.4 2.35c.58.66 2.24 1.56 2.53 2.17a3 3 0 0 1 1 .5c-.12 0 .21.46.47.39.87.9 2 1.83 3 2.8a14.39 14.39 0 0 1 2.46 2.85c.22.22.29.14.51.36-.05.06-.19-.08-.24 0 .44.23.65.64.91.83 0 0-.45-.75.13-.11-.14-.27-.68-.54-1.17-1.18a7.15 7.15 0 0 1 .67.62c0-.18-.43-.46-.6-.67A10 10 0 0 1 233 45.5c-2.13-2.66-5.19-5.15-7.62-7.61a10.2 10.2 0 0 0-.94-.55c-.21-.2 0-.2-.39-.48-.3.11-.78-.86-.92-.56-.21-.33-.55-.67-.68-.85a1.07 1.07 0 0 0-.58-.27c.17 0-.37-.44-1-.85a9 9 0 0 1-1.31-1 21.1 21.1 0 0 1-2.21-1.41c.34-.12 1.86 1 2.13 1.27a13.39 13.39 0 0 1 2.52 1.6c.2 0-.38-.35-.27-.41s.18 0 .21 0c.57.43 1.34 1 1.41 1.21 1.37.92 2.16 1.72 3.56 2.52a8.45 8.45 0 0 0 1 1c.41.29-.27-.32-.43-.45a9.47 9.47 0 0 1 2 1.73c-.12 0-.55-.52-.81-.71-.06.28.81.79 1.38 1.45a1.68 1.68 0 0 0-.38-.49 13.63 13.63 0 0 1 2.33 2.21c0 .23-.36-.33-.35-.11s.7.46.52.56a4.7 4.7 0 0 1 1.33 1.49c.16 0 .45.37.77.76-.45-.69-1.11-1.34-1.92-2.39a4.88 4.88 0 0 1 1.41 1.44c.07-.28 1.64 2.12 2.2 2.19 1.19 1.74 1.9 2.17 3.09 4.21-.54-1.11.79.94 1.2 1.61-.06.25-.32-.31-.49-.44a1.8 1.8 0 0 0-.42-.81c-.17.1.71 1.49 1 1.54 1.2 2 1.85 3.2 2.85 4.55.15.38-.24-.25-.32-.36.4.7 1.58 3.28 2.22 4.64.55 1.59 1 2.33 1.67 4.2 0 0-.09-.16-.14-.28a57.81 57.81 0 0 1 2.73 11.41c.08 0 0-.4.13-.29.24.5.16 1.42 0 1.18a14.6 14.6 0 0 1 .36 3.43c.05 1.55 0 3.22.12 4.35h.08c-.01 0-.13.86 0 .44-.2 1.14-.16 2.69-.35 3.93 0 .34.09.36.17.17l-.09.87c-.04.4-.04-.19-.16-.01zm-7.34 29.72c.25-.26.53-.67.68-.67a2.65 2.65 0 0 1-.69.84c.05-.12.06-.19.01-.19zm-4.65 3.73c.13-.12.28-.32.34-.32-.37.38-.34.5-.67.85 0-.17-.27.15-.33.1s.56-.8.7-.82c-.08.09-.09.16-.04.17zM128.48 98.47a1.39 1.39 0 0 1-.21-.84 1.76 1.76 0 0 1 .21.84zm-2.74-4.67a2.08 2.08 0 0 1-.21-1c.05.28.32.91.21 1zm-3-22.92a1.09 1.09 0 0 1-.23.87 1.81 1.81 0 0 1 .26-.88zm-.11-.33a2.76 2.76 0 0 1 .22-1c-.11.45.03.89-.19 1zm0 4.69a1.52 1.52 0 0 1 0 .75c-.31.01-.19-.82-.02-.76zm86.67-47.67a14.19 14.19 0 0 1-2.31-1 14.9 14.9 0 0 1 2.31 1zm-1-15.16l.6.3c.1.18-.75-.22-.55-.3zm.87-4.41a1.55 1.55 0 0 0 .22.1l-.13-.05s-.06-.05-.09-.05zm-2.34 6.43c0-.12.47.12.53 0a3 3 0 0 1 .8.53 3.9 3.9 0 0 0-1.33-.5zm3.88 1.88c-.08-.06-.16-.1-.11-.11s1.28.66.83.48-.37-.14-.6-.25c0-.01.01-.04-.12-.1zm-.51-5.1c.4.22 1.85.93 1.49.83a9.2 9.2 0 0 1-1.49-.81zm-.26-2.6h.06a1.58 1.58 0 0 1 .24.12zm.46-.12v.06l-.26-.09h.05l-.47-.18a9.22 9.22 0 0 1 1.15.44zm4.18 22.06c.1.19 1.26.66 1.14.81-.47-.26-1.05-.52-1.36-.72.36.24-.27-.32.21-.07zm.95.23a3.73 3.73 0 0 0 .94.55c-.05.3-1.3-.67-.95-.53zm4.54 3.2a6.11 6.11 0 0 1 1.25.89 6.24 6.24 0 0 1-1.26-.87zm.73-.44c-.3-.21-.42-.2-.8-.49 0-.2.74.36.79.51zm-.43-11c.35.19 1.07.52 1.06.68-.43-.22-1.02-.43-1.07-.66zm1.11-8.77c.38.22.38.11.63.24 0 .09.37.31.42.41-.37-.21-.72-.42-1.07-.64zM229.9 27a29.85 29.85 0 0 1 2.91 2.53 14.64 14.64 0 0 1 2.58 2.47 35.68 35.68 0 0 0-2.86-2.64c0 .21.25.22.66.62-.07.33-.74-.61-1-.52-.74-.64.62 0-.35-.68 0 0 .16.17.25.26-.13-.06-.29-.17-.48-.28-.09-.37-.95-1-2.16-1.94.09-.01.85.52.45.18zm8.36 9.11c-.67-.69-1.34-1.36-2-2-.23-.29.4.08 0-.41a3.6 3.6 0 0 1-1.12-.89c-.16 0-.69-.5-1.33-1.13.17.14.3.27.51.41l.06-.06c0-.15-.17-.12-.2-.06l-.33-.32s.07 0 .17.07c-.13-.08-.27-.2-.41-.31-.61-.61-1.31-1.25-2.09-2l-.09-.09-.11-.09a7.66 7.66 0 0 1 2.07 1.77c0-.07-.18-.25-.17-.31.67.53.39.54 1 1a4.11 4.11 0 0 0-1.06-1.22c.86.53 1.28 1.35 2.46 2.34.31 0 .92.65 1.38 1.17.27-.21-.81-.9-1.15-1.13-.69-.76-1.12-1.06-2-1.86-.14-.14-.05-.11 0 0-1.23-1.1-1-.56-2.84-2.24a11.29 11.29 0 0 1 1.99 1.39c.19.08.26 0 .43.08.63.48 1.38 1.41 2 1.76a.73.73 0 0 0-.1.14c.14.06.3.15.46.24l.07.08c.78.77 1.83 1.85 2.91 3a1.66 1.66 0 0 0-.68.12c.18.33.22.44.18.56zm-4.8-3.88c.15-.08.51.14 1 .67 0 0 0-.06-.05-.1.28.25.55.5.88.74a16 16 0 0 1-1.85-1.84c.53.46 1.06.93 1.6 1.43 1.11 1 2.14 2 3.06 3.07a3 3 0 0 0-.49.13c-.28-.32-.55-.63-.78-.91zm1.82 13.88a6.49 6.49 0 0 1-1.19-1.61 7.42 7.42 0 0 1 1.2 1.62zm-4.44-16.66c-.15-.17-.34-.37-.28-.42.18.19.34.36.29.43zm-.07.12c.26.14.22.07.13 0a.19.19 0 0 0 .14 0c.25.24.56.51.85.77.6.62 1.19 1.26 1.84 1.89a2.54 2.54 0 0 1-.89-.54c-.81-1-2.1-1.74-3.24-2.9l-.05.07c-1.25-1-2.5-1.84-3.75-2.67l-1.59-1.23c1.87 1.18 4.84 2.86 6.57 4.62zm8-2.41a1.09 1.09 0 0 1 .31.22H239a3.25 3.25 0 0 1-.22-.21zm1.43 11.2l.28.34-.28.25c-.42-.36-.27-.67 0-.58zm1.26 2.82l.09.11a1 1 0 0 1-.09-.1c-.26-.37-.51-.73-.81-1.11a4.67 4.67 0 0 0 .8.89c-.24-.22.02.1.01.22zm0-.22l.12.09v.08a.86.86 0 0 0-.08-.13zm1 1.41c.24 0 .53.42.81.8a.21.21 0 0 1-.22 0 8.36 8.36 0 0 0-.51-.79zM250 92.69c0-.46-.1.41-.17.26a7.85 7.85 0 0 0 .29-1.59c.12-.08-.12 1.23-.12 1.33zm-.15-55.06c0 .65-.39 1.17-1.14.58-.09-.07-.12-.5-.22-.64-.25-.4-1-1.14-1.5-1.86s-.47-1.12-1.18-1.55c0-.63-1.61-2.22-2.48-3.35-.27-.36-.27-.65-.53-1a15.18 15.18 0 0 0-2.8-2.55c-.17.32-.52.14-.81.11-.17-.2-.32-.41-.52-.65 0 .17-.58-.31-1.21-.87a5.56 5.56 0 0 1-1.25-1.39c-.52-.46-1-.52-1.09-.85a10.17 10.17 0 0 1-1.83-1.23c0-.1.19 0 .37.18-.2-.36-1.83-1-2.22-1.68 0 .06-.07 0-.2-.06s.11 0-.24-.33-.23-.07-.28 0-.11-.12-.16-.18.16 0 .05-.26a15.88 15.88 0 0 0-2.1-1.69c-.68-.52-1.36-1-2.08-1.57l.93.53a8 8 0 0 0-1.68-1c-.28-.19-.54-.39-.83-.57a1.39 1.39 0 0 0-.39-.17c-.95-.63-2.4-1.4-2.11-1.61a9.65 9.65 0 0 1-2.35-1.53c-.86-.23.87.61 1 .79-.33.06-1-.7-1.63-.83-.58-.37.64.16.11-.19-1.66-.82-4.06-1.69-5.59-2.53a3.56 3.56 0 0 1 .78.29c-.51-.3-.42-.23-.5-.4-.09 0-.94-.34-.38-.15-.41-.27-1.51-.41-2.13-.76.09.07.17.14.15.2l-.77-.3a1 1 0 0 1 .41.07l-2-.71a7 7 0 0 0-1.45-.48l-.46-.15a1.89 1.89 0 0 1-.29-.21c-.39-.39-.61-.15-.84-.16l-.22-.07c-.39-.17-.74-.51-1.31-.39h-.08c.35-.62-.62-.37-1-.75a.59.59 0 0 0 .22 0l.92.31a.58.58 0 0 0 .18.23 4.55 4.55 0 0 0 1.06.18l1.06.34a.83.83 0 0 0 .51.39.28.28 0 0 0 0-.23l2 .68a5.11 5.11 0 0 0 1.93 1 3 3 0 0 0-.81-.6l.95.36h.07c.17.24.19.56.91.5a.08.08 0 0 0 0-.1l.69.31s.11.08.11.13a.91.91 0 0 0 .27 0c1.26.57 2.48 1.14 3.34 1.51 1 .43 3.13 1.75 3.68 1.82a81.29 81.29 0 0 1 8.58 5.1c0-.09-.26-.25-.26-.33s.6.38.86.53-.55-.33-.43-.08c1.21.89 3.74 2.61 5 3.73 0-.09-.5-.45-.39-.48.75.54.43.7 1.19 1.09 0-.08-.21-.28-.58-.55a18 18 0 0 1 1.88 1.52s-.09 0-.21-.07c.44.35 1.31 1 2.07 1.72a6.71 6.71 0 0 1 1.47 1.51c.3.27.27.08.65.48s.24.33.17.39a7.41 7.41 0 0 1 1.22 1.05c.75.73 1.59 1.64 1.92 2 0-.36-1.53-1.67-1.61-2a30.11 30.11 0 0 1 3.39 3.85 31.67 31.67 0 0 1 3.84 4.44c.26.34.5.69.75 1h-.07c.57.61-.06.64.29 1.15-.38.11-.29-.59-.8-.96zM251 40a.47.47 0 0 1 .34-.5c.22.35.39.31.6.64-.31-.14-.53.46-.94-.14zm5.58 50.63c.11 0 .18.13.22.3s0 .49 0 .74v.08a6.1 6.1 0 0 1-.21-1.13zm0 2.27v.18a.62.62 0 0 1 .05-.18zm-.31-44.76c.59.81.5 2-.11 1.26.13-.4-.22-1.06.15-1.27zm.13 47.1v.21h-.05a1.19 1.19 0 0 1 .09-.22zm-.24-47.52c-.19.32-.56-.49-.74-.83s-.47-1.29 0-1.21c.39.72.01 1.4.79 2.03zm-.28 48.76c-.12.31.12.61.09.86a.32.32 0 0 1-.17.2c-.01-.18-.26-.89.13-1.07zm-.4-1.19s-.08-.06-.11-.11a6.68 6.68 0 0 0 .22-1.19.25.25 0 0 0 .11 0c0 .07.06.1.06.21-.02.41-.22.52-.23 1.08zM254.4 43a18.9 18.9 0 0 1 1 1.75c-.17-.29-.34-.57-.49-.83s-.32-.54-.53-.86c.02.02.01-.06.02-.06zm0 .72c.32.68.6.71.89 1-.16.17-.35-.13-.52-.19-.18.26-.28.66-.73-.08a.47.47 0 0 1 .41 0c-.28-.36-.29-.59-.06-.69zm-.77 58.38v.26l-.08.06c.01-.09.04-.18.07-.29zm.06 1.9a7.09 7.09 0 0 0 0-1.71 4.65 4.65 0 0 0 0-.52 21.68 21.68 0 0 0 .86-3.35 1.75 1.75 0 0 1 0 .51c.31-.52.77-.1 1-.32a1.26 1.26 0 0 0 .19-.26c-.35 1.59-.72 3.16-1.15 4.71-.19-.16-.32-.5-.49-.65l-.1.36-.11.35c.36-.14.61 0 .56.47 0 .08 0 .15-.07.23-.28 0 .06-.61-.42-.5a1.89 1.89 0 0 1-.67 1.71c-.07-.33.3-.61.4-1.03zm1.08.15c.49.09-.25 1.06-.4 1.24.08-.39.07-.95.4-1.22zm1.08.53c-.08.35-.25.35-.34.68.26.15.16.83.09 1.23s-.27.42-.42.86-.16 1.09-.31 1.5c-.1.23-.24.19-.32.5-.13.48-.59 1.81-1.06 1.62.28-.44-.09-.43-.11-.66a3 3 0 0 1 .85-1.49c-.13-.11 0-.43 0-.61a7.61 7.61 0 0 0 1.3-3.34c.14.26.38-.97.32-.27zm1-1.68c.06-.46-.33-.51 0-1.2.22.11.37 1 0 1.2zm-.18-2.58c.11-.55.51-1.75.57-1.42-.17.35-.5 1.83-.57 1.44zm1.45-8.33c0 .4-.2.34-.39.32-.15.55 0 .7 0 1.13.16 0 .16-.45.21-.73.49.36-.19 1-.4 1.28a2.45 2.45 0 0 0 .27 1.37c-.14.36-.6-.05-.59.66.06.34.3.47.49.67-.15.22-.43.16-.57.46-.41 1.71-.81 4-1.5 6.18-.09.43-.39.11-.51.44a1 1 0 0 1 0-.78.34.34 0 0 1-.29.08c.2-.69.39-1.38.57-2.08.27-1.09.5-2.17.69-3.24a9 9 0 0 1 .51-1.66c0-.3.05-.64-.11-.75v-.37a2.21 2.21 0 0 0 .19-.36c.21.07.22.36.12.76a4.38 4.38 0 0 0 .32-2.21c-.27.11-.33.08-.4 0s.06-.44.08-.67.07-.32.07-.58v-.06s.17 0 .21-.16c.36.09-.37 1.49.19 1.34a8.35 8.35 0 0 0 .11-2.23c.15-.69.4 0 .62-.32 0 .58-.38 1-.15 1.5a.49.49 0 0 0 .51-.32.84.84 0 0 1 .29.61c-.26.63-.26-.37-.55-.26z" fill-rule="evenodd" fill="url(#h)"/><path d="M98 62.23a.44.44 0 0 1 0 .08z" fill-rule="evenodd" fill="url(#i)"/><path d="M137.45 24.85l.18-.12z" fill-rule="evenodd" fill="url(#j)"/><path d="M126.38 19.8c0 .07 0 .11-.21.29l2.4-1.78a7.66 7.66 0 0 1-1.43.89 3.58 3.58 0 0 1-.76.6z" fill-rule="evenodd" fill="url(#k)"/><path d="M187.41 160.48l-.27.06c.17-.01.25-.03.27-.06z" fill-rule="evenodd" fill="url(#l)"/><path d="M159.25 130.08h.07s-.05-.02-.07 0z" fill-rule="evenodd" fill="url(#m)"/><path d="M192 139.43h.06z" fill-rule="evenodd" fill="url(#n)"/><path d="M193 138.83a3.51 3.51 0 0 1-.92.6c.54.06.84-.15.92-.6z" fill-rule="evenodd" fill="url(#o)"/><path d="M193 138.43a1.44 1.44 0 0 1 0 .39c.14-.16.18-.32 0-.39z" fill-rule="evenodd" fill="url(#p)"/><path d="M199.9 152.23c-.69-.08-.67.11-.42.19l.72.07c.06-.11-.48-.14-.3-.26z" fill-rule="evenodd" fill="url(#q)"/><path d="M214 148.86c-1.31.27-.48.47-.91.71.52-.12.56-.22 1-.35-.24-.14-.76.01-.09-.36z" fill-rule="evenodd" fill="url(#r)"/><path d="M214.68 149.14a32.9 32.9 0 0 0 4.49-1.24c-1.4.36-4.47.67-4.49 1.24z" fill-rule="evenodd" fill="url(#s)"/><path d="M95.56 79.4v-1.16c-.38-.39-.43 1.48 0 1.16z" fill-rule="evenodd" fill="url(#t)"/><path d="M96.21 78c0 .35 0 .74-.22 1 .16 0 .19.14.22.32.01-.46.03-.86 0-1.32z" fill-rule="evenodd" fill="url(#u)"/><path d="M96.22 80.23v-.1c0-.04-.15-.05-.19 0a.83.83 0 0 0 .16.36c.01-.1.02-.18.03-.26z" fill-rule="evenodd" fill="url(#v)"/><path d="M96 80.61a3.47 3.47 0 0 1 0 .39c-.27.45-.69.64-.8 1.35.49.4.41-.64.53-.89 0-.08.22.06.27 0s.15-.51.13-.46v-.27c0-.1-.13-.04-.13-.12z" fill-rule="evenodd" fill="url(#w)"/><path d="M95.87 78v-.33a7 7 0 0 1-.22-2.08s-.12-.11-.18-.11c-.22.56.27.67.3 1.18 0 .22-.89 1.05.11 1.14v.2z" fill-rule="evenodd" fill="url(#x)"/><path d="M137.61 24.9h-.13l-.33.22a.77.77 0 0 1 .18.07l.1-.06z" fill-rule="evenodd" fill="url(#y)"/><path d="M137.45 24.85a.59.59 0 0 0-.33.1.13.13 0 0 0 0 .05z" fill-rule="evenodd" fill="url(#z)"/><path d="M137.88 24.81h-.1c-.05 0 0 0 0 .08z" fill-rule="evenodd" fill="url(#A)"/><path d="M138.68 24.28a.58.58 0 0 0 .07-.11.94.94 0 0 0-.09.13z" fill-rule="evenodd" fill="url(#B)"/><path d="M111.93 33.47s-.08 0-.14.07l-.56.71a4.55 4.55 0 0 0-.3.53c.37-.37.45-.66 1-1.31z" fill-rule="evenodd" fill="url(#C)"/><path d="M98.93 59.08c.22-1.12.74-2.51 1-3.82-.3.4-.35 1.17-.63 1.47l-.15.51a7 7 0 0 1-.46 1.76z" fill-rule="evenodd" fill="url(#D)"/><path d="M97.68 62.84c0 .2-.1.4-.17.59v-.1a6.44 6.44 0 0 0-.28 1.57q.34-1.31.74-2.58c-.11.17-.2.34-.29.52z" fill-rule="evenodd" fill="url(#E)"/><path d="M122 23.77l.18-.11c.32-.36-.13 0-.26 0l-.18.14c.1-.08.18-.07.26-.03z" fill-rule="evenodd" fill="url(#F)"/><path d="M134.6 14.44a5.64 5.64 0 0 0 .67-.46c-.32.14-.72.22.09-.23-.65.3-1.72 1-2.63 1.59.5-.02 1.69-1.14 1.87-.9z" fill-rule="evenodd" fill="url(#G)"/><path d="M128.57 18.32c-.05.07-.09.14 0 .17l.67-.45a.82.82 0 0 0-.4.15l1.43-.92.87-.71c-.79.44-1.64 1.07-2.57 1.76z" fill-rule="evenodd" fill="url(#H)"/><path d="M137.37 12.73c.19-.17.48-.37.76-.57l-.41.14a7.25 7.25 0 0 0-1 .61c.03.14.84-.49.65-.18z" fill-rule="evenodd" fill="url(#I)"/><path d="M126 20.22l.13-.13h-.05c0-.1.11-.21.27-.32v-.08c.1 0 .83-.54.33-.24a2 2 0 0 1 .45-.32c-.16-.09-1 .67-1.5 1.08-.15.3.17.13.27.2.28-.23.55-.45.78-.67-.06.02-.4.26-.68.48z" fill-rule="evenodd" fill="url(#J)"/><path d="M117.9 27.2c.45-.43.34-.49.81-.93-.08 0-.66.44-.61.56-.13.14-.15.07-.21.08-.38.49-.1.23.01.29z" fill-rule="evenodd" fill="url(#K)"/><path d="M122.58 22.91c.33-.09.43-.32 1.14-.88-.02-.25-.78.59-1.14.88z" fill-rule="evenodd" fill="url(#L)"/><path d="M117.34 27.81c-.11.07-.23.13-.08-.07-.05-.1-.5.52-.72.73a1.81 1.81 0 0 0 .8-.66z" fill-rule="evenodd" fill="url(#M)"/><path d="M113.8 31.27c-.26 0-.51.66-1 1.07.09.25.67-.73 1-1.07z" fill-rule="evenodd" fill="url(#N)"/><path d="M135.37 13.78a1.91 1.91 0 0 0 1-.4 1.54 1.54 0 0 0-1 .4z" fill-rule="evenodd" fill="url(#O)"/><path d="M98 62.23c.12-.37.24-.74.37-1.1.17-.78.33-1.43.38-1.89a6.64 6.64 0 0 0-.75 2.99z" fill-rule="evenodd" fill="url(#P)"/><path d="M148.54 30.18c.25 0 .82-.34.62-.43-.24.14-.85.37-.62.43z" fill-rule="evenodd" fill="url(#Q)"/><path d="M177.09 11.85l.63-.15a.87.87 0 0 0-.63.15z" fill-rule="evenodd" fill="url(#R)"/><path d="M70 36.07S45.3 33 38 33H21.73a4.79 4.79 0 0 0-4.88 4.7l-.2 36.78a1.4 1.4 0 0 0 1.42 1.43l36.78-1c1 0 2 .41 2 1.42v9.55c0 1-1 1.42-2 1.42l-36.77-1a1.39 1.39 0 0 0-1.42 1.42l.41 54.66a2.37 2.37 0 0 1-2.65 2.62H2.64A2.37 2.37 0 0 1 0 142.35l.21-58.61L0 25.34C0 23.71.81 23 2.64 23h67.44c1.63 0 2.82.09 2.82 1.72v9.55c-.01 1.62-1.31 2.01-2.9 1.8zM392.69 145h-15.44c-1.83 0-2.64-1.23-3.45-2.65l-28.44-46.87C342.11 90.2 338.86 87 335 87h-13.61c-1.83 0-3.86 1.67-3.86 3.49l.21 51.73a2.46 2.46 0 0 1-2.64 2.77h-11.79a2.37 2.37 0 0 1-2.64-2.65l.2-58.61-.2-58.4c0-1.62.2-2.34 1.83-2.34h49c17.87 0 32.29 12 32.29 28.69 0 16.86-12 29.58-28.85 33.44-1.22.2-1.22 1-.4 1.58 1.63 1.22 3.66 3.84 7.52 9.53l26.81 38.18 5.69 7.93c.97 1.44-.25 2.66-1.87 2.66zM344.34 31H323c-2.64 0-5.28 1.94-5.28 4.58l-.21 40.6a4.29 4.29 0 0 0 3.88 3.82H336c18.08 0 29.45-7.23 29.45-26.73.02-12.8-8.51-22.27-21.11-22.27zm188.52 114h-71.71a2.37 2.37 0 0 1-2.64-2.65l.2-58.61-.2-58.4c0-1.62.81-2.34 2.64-2.34h69.47c1.63 0 3.27.09 3.27 1.72v9.55c0 1.63-1.53 2-3.16 1.81 0 0-21.85-3.07-32.21-3.07h-18.27a4.79 4.79 0 0 0-4.88 4.7l-.2 37a1.4 1.4 0 0 0 1.42 1.43l38.43-1c1 0 1.87.41 1.87 1.42v9.55c0 1-.85 1.43-1.87 1.43l-38.52-1a1.35 1.35 0 0 0-1.38 1.42l.22 41.33a4.87 4.87 0 0 0 4.9 4.77h18.28c10.36 0 34.33-3.75 34.33-3.75 1.63-.2 3 .31 3 1.93v10.36c.04 1.57-1.36 2.4-2.99 2.4zm113.96-1.24c-.4 1.22-4.06 2-6.09 2S635 145 634.64 144L592.59 38.74l-5.89-13.46c-.61-1.62 0-2.28 1.63-2.28h15.44c1.83 0 3.05.66 3.66 2.28l5.08 13.53 29.25 83c.4 1 2.64 1 3 0l31.49-96.55c.61-1.83 1.22-2.29 3-2.29h10.56c1.83 0 2 1.27 1.42 2.89zM827.6 145h-71.7a2.37 2.37 0 0 1-2.64-2.65l.21-58.61-.21-58.4c0-1.62.81-2.34 2.64-2.34h69.47c1.62 0 3.53.09 3.53 1.72v9.55c0 1.63-1.66 2-3.29 1.81 0 0-22-3.07-32.34-3.07H775a4.79 4.79 0 0 0-4.88 4.7l-.2 37a1.39 1.39 0 0 0 1.42 1.43l38.56-1c1 0 2 .41 2 1.42v9.55c0 1-1 1.43-2 1.43l-38.58-1a1.38 1.38 0 0 0-1.41 1.42l.21 41.33A4.86 4.86 0 0 0 775 134h18.28c10.36 0 34.45-3.75 34.45-3.75 1.62-.2 3.17.31 3.17 1.93v10.36c-.01 1.63-1.67 2.46-3.3 2.46zm162.71 0h-15.44c-1.83 0-2.64-1.23-3.45-2.65L943 95.48c-3.25-5.28-6.5-8.48-10.36-8.48H919c-1.83 0-3.86 1.67-3.86 3.49l.2 51.73a2.46 2.46 0 0 1-2.64 2.77h-11.77a2.37 2.37 0 0 1-2.64-2.65l.21-58.61-.21-58.4c0-1.62.21-2.34 1.83-2.34h49c17.88 0 32.3 12 32.3 28.69 0 16.86-12 29.58-28.84 33.44-1.22.2-1.22 1-.41 1.58 1.63 1.22 3.66 3.84 7.52 9.53l26.81 38.18 5.69 7.93c.97 1.44-.25 2.66-1.88 2.66zM942 31h-21.36c-2.65 0-5.29 1.94-5.29 4.58l-.2 40.6A4.29 4.29 0 0 0 919 80h14.63c18.08 0 29.45-7.23 29.45-26.73C963.09 40.47 954.56 31 942 31zm63.88 10a9.72 9.72 0 1 1 9.91-9.72 9.79 9.79 0 0 1-9.91 9.72zm0-18.51a8.79 8.79 0 1 0 8.64 8.79 8.73 8.73 0 0 0-8.64-8.79zm5 14.51h-2.08c-.15 0-.22-.21-.3-.32l-2.3-4.09a1 1 0 0 0-1-.6h-.67c-.19 0-.37-.08-.37.11v4.67c0 .15-.11.22-.26.22h-1.63a.6.6 0 0 1-.43-.41V25.9c0-.15.21.1.35.1h4.86c1.63 0 2.93 1 2.93 2.47a3.08 3.08 0 0 1-2.63 3c-.11 0-.11 0 0 .07a4.52 4.52 0 0 1 .71.87l2.45 3.48.52.79a.22.22 0 0 1-.17.32zm-5-11h-1.19c-.22 0-.48.43-.48.66v3.84c0 .19.19.5.37.5h.63a2.43 2.43 0 0 0 2.63-2.72 2.13 2.13 0 0 0-1.96-2.28z" fill="#5c5d5d"/></svg>